<svg xmlns="http://www.w3.org/2000/svg" viewBox="0 0 500 500.006">
  <path d="M264.171,163.1c-4.981-1.57-17.263-4.534-24.035,1.738-4.15,3.847-6.719,10.631-5.987,15.786a9.739,9.739,0,0,0,5.307,7.586,25.375,25.375,0,0,0,10.974,2.261c5.6,0,11.4-1.5,14.956-4.778,3.586-3.325,6.719-9.881,5.452-15.491a9.419,9.419,0,0,0-6.667-7.1m-2.738,18.321c-3.772,3.5-13.915,4.324-19.379,1.592a3.846,3.846,0,0,1-2.15-3.214c-.471-3.319,1.4-8.126,4.185-10.695,1.767-1.639,4.568-2.279,7.713-2.279a36.92,36.92,0,0,1,10.625,1.814,3.65,3.65,0,0,1,2.744,2.836c.656,2.912-1.058,7.464-3.738,9.946m165.748-107.8-.133.122.128-.122A248.3,248.3,0,0,0,250,0C137.215,0,37.95,75.963,8.614,184.726A250.564,250.564,0,0,0,0,250C0,387.854,112.146,500.006,250,500.006a251.041,251.041,0,0,0,64.181-8.318C423.6,462.707,500,363.32,500,250A248.439,248.439,0,0,0,427.181,73.621M250,5.812A242.515,242.515,0,0,1,423.008,77.678a7.218,7.218,0,0,1,1.54,5.853c-.755,3.825-4.87,7.655-11.909,11.09-22.28,10.846-35,.628-35.532.186l-.273-.227A200.009,200.009,0,0,0,217.328,52.173c-8.969,2.406-15.694,8.457-19.361,30.126-1.448,8.544.023,15.13,4.371,19.57,7.161,7.3,19.3,5.586,19.925,5.493a145.911,145.911,0,0,1,67.018,2.651c9.172,2.452,20.866,9.137,25.458,17.164a13.122,13.122,0,0,1,1.564,10.3c-3.023,10.963-20.629,19.414-39.711,14.288a107.619,107.619,0,0,0-27.377-3.505c-15.188.453-25.325,10.9-28.551,29.416-1.191,6.83.128,12.555,3.918,17,4.9,5.748,13.851,9.131,24.831,8.812a22.753,22.753,0,0,1,15.9,6.324,21.941,21.941,0,0,1,6.568,15.74,21.684,21.684,0,0,1-20.506,21.407c-8.062-11.915-23.924-15.92-36.392-8.707a27.806,27.806,0,0,0-9.957,38.49c4.609,7.748,6.214,15.589,4.3,20.983-1.349,3.8-4.476,6.626-9.283,8.382-10.451,3.836-24.639,5.62-32.776-7.551A95.372,95.372,0,0,1,157.245,274.6c-5.534-20.721-23.866-35.328-39.31-31.381a18.774,18.774,0,0,0-11.7,9.207c-5.708,9.8-5.417,25.052-2.737,35.032a151.517,151.517,0,0,0,32.363,61.6c.059.076,6.034,7.771,4.069,14.752-1.145,4.075-4.906,7.33-11.171,9.655-19.705,7.318-25.442,3.824-29.452-.157a194.2,194.2,0,0,1-41.536-154.8c.139-.825,3.267-20.512-20.413-36.473a50.1,50.1,0,0,0-5.679-3.337.791.791,0,0,1-.111-.052,30.021,30.021,0,0,0-5.19-2.017c-.041-.011-.087-.029-.128-.04a19.468,19.468,0,0,0-4.621-.71c-.087,0-.186-.017-.279-.017a13.913,13.913,0,0,0-3.958.523c-.1.023-.2.012-.3.041C48.918,75.469,143.254,5.812,250,5.812m0,488.381C115.354,494.193,5.812,384.646,5.812,250a244.712,244.712,0,0,1,8.37-63.623,7.32,7.32,0,0,1,4.354-4.307,8.368,8.368,0,0,1,3.069-.4c3.377.151,7.638,1.889,12.514,5.179,20.588,13.886,18.048,29.986,17.926,30.7a199.962,199.962,0,0,0,42.96,159.657,20.078,20.078,0,0,0,15.3,6.318c5.179,0,11.753-1.372,20.477-4.609,8.12-3.023,13.09-7.586,14.758-13.567,2.738-9.858-4.8-19.5-5.208-20.006a145.8,145.8,0,0,1-31.207-59.357c-2.464-9.178-2.523-22.645,2.133-30.638a13.129,13.129,0,0,1,8.138-6.5c10.985-2.929,27.132,8.178,32.224,27.237a101.591,101.591,0,0,0,10.654,25.471c7.987,12.921,22.093,16.461,39.752,10.014,6.51-2.383,10.811-6.387,12.77-11.9,2.522-7.108.779-16.554-4.784-25.906a22.006,22.006,0,0,1,7.87-30.486,21.685,21.685,0,0,1,28.8,7.056,27.431,27.431,0,0,0,32.009,38.624,27.773,27.773,0,0,0,16.955-13.38c4.406-7.859,10.4-13.171,16.031-14.212,3.982-.721,7.975.57,11.9,3.848,8.539,7.144,17.182,18.53,9.835,32.16a95.029,95.029,0,0,1-15.74,20.658c-15.171,15.153-18.682,38.4-7.516,49.731a18.719,18.719,0,0,0,13.822,5.522c11.5-.157,24.4-7.829,31.707-15.141a151.5,151.5,0,0,0,37.165-58.834c.035-.087,3.714-9.108,10.741-10.9,4.11-1.035,8.812.592,13.95,4.847,16.176,13.392,16.031,20.117,14.59,25.587a194.186,194.186,0,0,1-113.3,113.378c-.79.29-19.384,7.463-21.384,35.9a48,48,0,0,0-.023,6.766c.041.68.2,1.221.279,1.86a30.507,30.507,0,0,0,.633,3.83,19.414,19.414,0,0,0,.715,1.837,18.236,18.236,0,0,0,1.14,2.749,14.958,14.958,0,0,0,1.18,1.541,14.787,14.787,0,0,0,1.365,1.767A245.526,245.526,0,0,1,250,494.193m62.833-8.16a7.325,7.325,0,0,1-5.935-1.616c-2.935-2.575-4.191-8.074-3.65-15.874,1.732-24.738,16.943-30.626,17.629-30.876A199.943,199.943,0,0,0,437.661,320.621c2.395-8.968.518-17.815-16.414-31.829-5.22-4.324-10.294-6.5-15.142-6.5a15.958,15.958,0,0,0-3.987.5c-9.9,2.546-14.479,13.9-14.711,14.508A146,146,0,0,1,351.6,354.014c-6.7,6.7-18.3,13.462-27.54,13.462H324a13.154,13.154,0,0,1-9.7-3.784c-7.986-8.114-6.481-27.6,7.475-41.542a101.324,101.324,0,0,0,16.728-21.959c7.2-13.375,3.226-27.377-11.2-39.432-5.307-4.447-10.887-6.167-16.688-5.1-7.417,1.365-14.723,7.591-20.047,17.088a21.994,21.994,0,0,1-30.335,8.428,21.743,21.743,0,0,1-8.457-28.324,27.62,27.62,0,0,0-2.447-55.172c-8.934.25-16.607-2.412-20.321-6.766-2.615-3.074-3.5-7.19-2.621-12.235,1.912-10.968,7.451-24.145,22.936-24.6a101.03,101.03,0,0,1,25.755,3.3c20.7,5.556,42.6-3.011,46.825-18.356a18.706,18.706,0,0,0-2.122-14.723c-5.632-9.841-18.977-17.217-28.969-19.89a151.355,151.355,0,0,0-69.529-2.773c-.11.012-9.747,1.343-14.81-3.848-2.964-3.04-3.894-7.922-2.778-14.514,3.5-20.7,9.4-23.947,14.857-25.423A194.211,194.211,0,0,1,373.4,99.283c1.627,1.348,16.635,12.816,41.78.558,8.625-4.2,13.653-9.143,14.961-14.7A242.456,242.456,0,0,1,494.188,250c0,110.687-74.633,207.761-181.355,236.033M441.021,105.8c-5.766-6.958-11.061-7.557-20.989-2.372-4.6,2.4-9.887,6.777-10.922,11.858a8.62,8.62,0,0,0,1.913,7.376c3.662,4.429,7.323,7.939,14.258,7.939,3.383,0,7.539-.837,12.857-2.813a10.145,10.145,0,0,0,6.289-7.178,17.285,17.285,0,0,0-3.406-14.81m-2.209,13.31a4.383,4.383,0,0,1-2.691,3.226c-13.636,5.068-16.711,1.343-20.611-3.377a2.816,2.816,0,0,1-.7-2.511c.5-2.465,3.75-5.7,7.911-7.864,3.761-1.965,6.237-2.8,8.1-2.8,2.464,0,3.859,1.465,5.713,3.714a11.584,11.584,0,0,1,2.273,9.608M308.688,307.95a9.77,9.77,0,0,0,2.93.454,9.567,9.567,0,0,0,6.556-2.686c3.837-3.516,12.544-12.688,10.5-21.68-1.244-5.516-5.836-11.131-10.672-13.072a9.722,9.722,0,0,0-9.219.8c-6.5,4.29-12.63,15.583-10.788,23.715,1.087,4.772,5.2,10.759,10.689,12.473m3.3-31.34a3.594,3.594,0,0,1,2.046-.64,4.817,4.817,0,0,1,1.808.384c3.069,1.232,6.347,5.336,7.178,8.963,1.11,4.929-3.8,11.561-8.771,16.123a3.647,3.647,0,0,1-3.83.959c-2.843-.889-5.941-4.65-6.749-8.207-1.139-5.016,3.221-14.217,8.318-17.582m30.068-131.374c-2.773-2.575-7.062-5.9-11.823-5-3.661.68-6.666,3.529-9.206,8.7-3.569,7.289-2.215,15.67,3.382,20.849a15.57,15.57,0,0,0,10.381,4.174,13.055,13.055,0,0,0,1.913-.14,11.323,11.323,0,0,0,8.277-5.65c6.824-11.811,1.6-18.745-2.924-22.93m-2.1,20.024a5.492,5.492,0,0,1-4.115,2.8,9.3,9.3,0,0,1-7.475-2.54c-3.761-3.482-4.586-8.986-2.116-14.032,1.134-2.307,2.924-5.138,5.051-5.533a2.811,2.811,0,0,1,.547-.052c1.6,0,3.661,1.185,6.265,3.6,4.4,4.069,6.243,8.126,1.843,15.758m-35.009,209.1c1.238-3.511.285-7.539-2.923-12.323-4.528-6.742-12.462-9.759-19.745-7.5a15.224,15.224,0,0,0-9.631,8.632,11.328,11.328,0,0,0,.749,10c4.569,7.917,9.945,10.05,14.764,10.05a22.34,22.34,0,0,0,6.551-1.116c3.615-1.122,8.608-3.133,10.235-7.742m-5.481-1.936c-.569,1.6-2.685,2.953-6.469,4.127-5.749,1.767-10.172,1.337-14.572-6.289a5.523,5.523,0,0,1-.372-4.97,9.477,9.477,0,0,1,5.94-5.2,11.152,11.152,0,0,1,3.238-.488,12.09,12.09,0,0,1,9.963,5.673c1.441,2.133,2.993,5.109,2.272,7.149m-19.692,80.694c-8.428,1.425-15.107,3.866-17.99,20.925a10.146,10.146,0,0,0,3.069,9.027,17.168,17.168,0,0,0,11.875,4.668,15.344,15.344,0,0,0,2.65-.216c8.9-1.5,12.073-5.789,12.555-16.989.215-5.185-.93-11.957-4.818-15.386a8.654,8.654,0,0,0-7.341-2.029m-1.36,28.673a11.562,11.562,0,0,1-9.452-2.83,4.371,4.371,0,0,1-1.447-3.947v-.006c2.424-14.333,7.19-15.141,13.224-16.153a4.132,4.132,0,0,1,.68-.064,2.661,2.661,0,0,1,1.848.715c1.883,1.657,3.057,6.092,2.854,10.777-.419,9.869-2.668,10.654-7.707,11.508M38.043,176.036c3.388,2.157,8,4.069,12.183,4.069a11.272,11.272,0,0,0,3.557-.54,8.615,8.615,0,0,0,5.429-5.354c2.981-8.009,4.2-15.013-9.126-26.034v-.006a10.207,10.207,0,0,0-9.364-1.854,17.329,17.329,0,0,0-11.113,10.352c-3.151,8.463-1.017,13.352,8.434,19.367M35.061,158.7a11.562,11.562,0,0,1,7.167-6.766,6.04,6.04,0,0,1,1.522-.209,4,4,0,0,1,2.633.93c11.2,9.265,9.515,13.8,7.382,19.53a2.831,2.831,0,0,1-1.831,1.871c-2.389.8-6.812-.412-10.764-2.918-8.335-5.3-7.9-7.643-6.109-12.438m89.855,80.4c.657,0,1.337-.029,2.046-.076,8.1-.552,14.682-5.917,16.368-13.351a15.233,15.233,0,0,0-2.663-12.66,11.318,11.318,0,0,0-9.026-4.347c-13.636,0-17.031,7.992-18.4,14-.843,3.691-1.581,9.027,1.587,12.729,2.127,2.482,5.435,3.7,10.085,3.7m-6-15.142c1.331-5.853,3.924-9.48,12.73-9.48a5.489,5.489,0,0,1,4.481,2.156,9.46,9.46,0,0,1,1.54,7.754c-1.133,4.982-5.487,8.457-11.1,8.835-2.574.175-5.911.035-7.317-1.6-1.1-1.3-1.215-3.8-.338-7.667m51.563,47.9a9.422,9.422,0,0,0-2.819,9.323c1.133,5.086,4.72,17.211,13.531,19.948a18.113,18.113,0,0,0,5.348.762,18.993,18.993,0,0,0,11.305-3.464,9.719,9.719,0,0,0,3.923-8.388v-.006c-.465-7.777-7.178-18.733-15.147-21.2-4.679-1.453-11.916-.877-16.141,3.023m25.487,18.518a3.825,3.825,0,0,1-1.708,3.476c-2.645,2.064-7.731,2.843-11.346,1.727-4.825-1.5-8.109-9.074-9.573-15.653a3.644,3.644,0,0,1,1.075-3.8c1.529-1.407,4.324-2.226,7.056-2.226a11.864,11.864,0,0,1,3.435.482c4.906,1.523,10.695,9.893,11.061,15.99M154.5,382.623c-3.057-1.424-10.741-4.5-16-2.273a15.241,15.241,0,0,0-8.074,20.007c2.4,5.65,7.731,8.8,14.456,8.8a24.126,24.126,0,0,0,5.033-.546c9.934-2.093,15.339-3.86,17.327-7.673,1.471-2.825.5-5.836-.36-7.858-2.3-5.406-10.061-9.364-12.381-10.457m-5.789,20.3c-2.336.494-10.2,1.6-12.938-4.842A9.433,9.433,0,0,1,140.76,385.7h.006a5.327,5.327,0,0,1,2.006-.314,23.377,23.377,0,0,1,9.265,2.511c4.644,2.168,8.544,5.237,9.491,7.457.425,1,.861,2.308.553,2.9-1.081,2.075-10.009,3.964-13.375,4.673M422.1,246.21c-3.18.134-5.307,2.488-6.627,4.243-3.528,4.691-3.08,13.392-2.859,15.944.29,3.365,1.464,11.573,6.027,15A15.257,15.257,0,0,0,440,278.382c4.5-5.987,3.481-14.229-2.6-20.994-6.778-7.557-10.823-11.538-15.31-11.178m13.264,28.673a9.443,9.443,0,0,1-13.224,1.878c-1.441-1.087-3.22-4.947-3.737-10.87-.442-5.1.261-10.009,1.714-11.939.651-.871,1.564-1.906,2.238-1.935h.047c2.383,0,8.4,6.713,10.683,9.253,1.6,1.779,6.493,8.016,2.279,13.613M167.655,106.473a9.639,9.639,0,0,0,1.226.07c5.586,0,12.055-4.2,14.008-5.569,2.773-1.935,9.289-7.045,9.98-12.717a15.254,15.254,0,0,0-13.3-17c-7.637-.889-14.008,3.976-16.885,12.747-3.15,9.654-4.33,15.217-2.023,18.844,1.709,2.691,4.807,3.353,6.993,3.621m.558-20.658c.7-2.15,3.394-8.852,9.567-8.852a8.679,8.679,0,0,1,1.087.064A9.453,9.453,0,0,1,187.1,87.553c-.221,1.779-2.673,5.255-7.544,8.661-4.2,2.935-8.765,4.725-11.2,4.493-1.069-.134-2.435-.413-2.79-.971-1.261-1.982,1.575-10.654,2.645-13.921"/>
</svg>
