<svg xmlns="http://www.w3.org/2000/svg" viewBox="0 0 500 500.004">
  <g>
    <path d="M114.5,223c1.441-6.352,4.622-11.874,15.743-11.874,6.933,0,10.415,7.269,8.968,13.614s-7,10.762-13.9,11.227c-12.427.841-12.262-6.616-10.815-12.967M37.132,172.688c5.827,3.711,14.66,6.087,17.072-.382s4.446-12.473-8.345-23.059c-5.322-4.4-13.679.888-16.09,7.363s-1.929,10.168,7.363,16.078m399.584,89.883c-10.15-11.309-13.5-12.732-17.66-7.2-4.152,5.51-2.893,23.041,2.629,27.193a12.489,12.489,0,0,0,17.5-2.476c4.152-5.522,2.153-12.373-2.464-17.513m.306,58.126a199.038,199.038,0,0,1-87.007,102.55,201.236,201.236,0,0,1-29.345,13.879c-.024.011-17.8,6.192-19.73,33.779-1.688,24.141,13.237,20.783,13.237,20.783A250.178,250.178,0,0,1,249.994,500C111.93,500,0,388.074,0,250.009A250,250,0,0,1,8.61,184.72s4.551-14.578,24.611-1.046C56.15,199.14,52.61,217.624,52.61,217.647a201.078,201.078,0,0,0-2.652,32.362A199.076,199.076,0,0,0,95.264,376.63c5.9,5.886,13.473,8.339,33.091,1.052,24.505-9.1,8.468-29.28,8.468-29.28a149.9,149.9,0,0,1-32.2-61.232c-3.576-13.343-2.846-37.2,12.491-41.183,13.367-3.476,30.78,9.415,36.19,29.657a99.552,99.552,0,0,0,10.445,24.976c7,11.326,19.406,15.255,36.708,8.921,16.5-6.051,13.549-22.241,6.557-33.991a25.2,25.2,0,0,1,9.021-34.891,24.857,24.857,0,0,1,33.956,9.35h0a24.867,24.867,0,0,0,8.892,34.086,25.2,25.2,0,0,0,34.726-9.639c6.681-11.932,19.231-22.582,32.715-11.315,14.132,11.815,16.937,24.529,10.633,36.25a99.5,99.5,0,0,1-16.414,21.529c-14.831,14.808-17.277,36.332-7.586,46.171,11.115,11.291,32.145-.006,41.907-9.768A149.9,149.9,0,0,0,391.8,298.814s9.45-23.97,29.592-7.3c16.119,13.35,17.784,21.136,15.631,29.187m-276.2,73.04c-2.7-6.351-18.5-14.026-24.858-11.327a12.494,12.494,0,0,0-6.6,16.4c2.7,6.352,9.638,8.045,16.4,6.616,14.873-3.128,17.772-5.328,15.067-11.685m128.649,79.279c.3-6.9-2.052-15.748-8.868-14.6s-13.026,2.388-15.8,18.766c-1.153,6.81,7.61,11.4,14.42,10.25s9.774-3.416,10.244-14.414M300.187,365c-3.858-5.74-10.45-8.345-16.672-6.416s-10.774,8.569-7.316,14.567c5.569,9.633,11.938,9.627,18.16,7.7s12.767-5.516,5.828-15.855m16.8-60.79c5.263-4.828,11.238-12.544,9.75-19.124S317.43,270.3,311.1,274.474c-5.946,3.922-11.156,14.32-9.668,20.894s9.362,14.532,15.561,8.845M181.241,298.92c6.44,1.994,17.472-.664,17.019-8.239-.429-7.1-6.827-16.825-13.261-18.818s-17.266.846-15.437,9.05c1.547,6.975,5.24,16.008,11.679,18.007" fill="#979797"/>
    <path d="M427.172,73.626c.041.047,10.362,11.227-11.338,21.806-24.859,12.127-39.1-.176-39.12-.188a201.484,201.484,0,0,0-26.7-18.483A199.079,199.079,0,0,0,217.708,52.69c-8.051,2.165-13.961,7.5-17.46,28.134-4.363,25.77,21.118,21.971,21.118,21.971a149.87,149.87,0,0,1,69.129,2.729c13.344,3.575,33.639,16.137,29.422,31.409-3.675,13.315-23.541,21.954-43.777,16.514a99.631,99.631,0,0,0-26.857-3.441c-13.3.4-22.906,9.18-26.07,27.329-3.017,17.313,12.479,22.853,26.152,22.67a25.206,25.206,0,0,1,25.711,25.258A24.861,24.861,0,0,1,250,250h-.006L250,250a24.856,24.856,0,0,0,8.886,34.085,25.2,25.2,0,0,0,34.726-9.632c6.681-11.938,19.231-22.583,32.715-11.315,14.132,11.814,16.937,24.529,10.633,36.249a99.671,99.671,0,0,1-16.414,21.53c-14.831,14.808-17.277,36.332-7.586,46.176,11.115,11.286,32.145-.011,41.907-9.78a149.865,149.865,0,0,0,36.932-58.5s9.45-23.97,29.592-7.3c16.119,13.349,17.784,21.136,15.631,29.187A199.487,199.487,0,0,1,320.67,437.126c-.024.012-17.8,6.193-19.73,33.78-1.688,24.135,13.237,20.783,13.237,20.783C421.156,463.361,500,365.892,500,250A249.2,249.2,0,0,0,427.172,73.626M263.567,182.786c-4.946,4.575-16.554,5.258-22.923,2.07-6.787-3.393-3.576-14.273,1.37-18.854s14.62-3.258,21.435-1.111c8.022,2.523,5.064,13.308.118,17.9m79.979-17.054c-3.463,6-11.491,5.387-16.272.952-4.775-4.416-5.816-11.432-2.782-17.642,5.487-11.179,11.868-7.3,16.643-2.882s7.969,9.945,2.411,19.572m79.844-61.42c9.763-5.087,13.209-3.652,17.608,1.671s4.8,15.2-1.67,17.607c-15.561,5.792-19.742,1.029-24.141-4.293s2.076-11.791,8.2-14.985m15.79,175.773a12.489,12.489,0,0,1-17.5,2.475c-5.522-4.151-6.781-21.682-2.629-27.193,4.158-5.528,7.51-4.11,17.66,7.2,4.617,5.14,6.616,11.991,2.464,17.514M427.166,73.62l.006.006ZM264.808,477.175c2.77-16.372,8.98-17.608,15.8-18.76s9.168,7.7,8.868,14.6c-.47,11-3.434,13.267-10.244,14.42s-15.573-3.44-14.42-10.256m29.551-96.322c6.222-1.923,12.767-5.511,5.828-15.849-3.858-5.74-10.45-8.345-16.672-6.422s-10.774,8.568-7.316,14.573c5.569,9.632,11.938,9.627,18.16,7.7m22.63-76.639c5.263-4.829,11.238-12.55,9.75-19.125S317.43,270.3,311.1,274.48c-5.946,3.917-11.156,14.314-9.662,20.883s9.356,14.537,15.555,8.851M167.521,82.018c-4.728,14.449-4.275,18.06,2.582,18.895S191.5,91.9,192.35,85.047a12.512,12.512,0,0,0-10.9-13.926c-6.857-.829-11.791,4.334-13.932,10.9" fill="#cbcbcb"/>
    <path d="M341.135,146.162c4.781,4.428,7.969,9.939,2.411,19.572-3.463,6-11.491,5.386-16.272.952s-5.816-11.432-2.782-17.642c5.487-11.18,11.868-7.3,16.643-2.882M135.965,382.413a12.493,12.493,0,0,0-6.6,16.4c2.7,6.351,9.638,8.039,16.4,6.615,14.873-3.128,17.772-5.328,15.067-11.685s-18.5-14.026-24.858-11.326M441,105.984c-4.4-5.322-7.845-6.757-17.608-1.67-6.127,3.193-12.608,9.656-8.2,14.985s8.58,10.079,24.14,4.293c6.475-2.406,6.07-12.285,1.671-17.608m-25.164-10.55c-24.859,12.126-39.1-.176-39.12-.188a199.366,199.366,0,0,0-159.006-42.56c-8.051,2.17-13.961,7.5-17.46,28.14-4.363,25.764,21.118,21.971,21.118,21.971a149.843,149.843,0,0,1,69.129,2.729c13.344,3.575,33.639,16.137,29.422,31.409-3.675,13.308-23.541,21.953-43.777,16.514A99.877,99.877,0,0,0,249.283,150c-13.3.406-22.906,9.186-26.07,27.334-3.017,17.314,12.479,22.847,26.152,22.671a25.2,25.2,0,0,1,25.711,25.258A24.865,24.865,0,0,1,250,250h-.006v.006a24.862,24.862,0,0,0-33.956-9.351,25.2,25.2,0,0,0-9.021,34.9c6.992,11.75,9.939,27.94-6.557,33.986-17.3,6.333-29.71,2.4-36.708-8.916a99.707,99.707,0,0,1-10.445-24.976c-5.41-20.247-22.823-33.132-36.19-29.657-15.337,3.982-16.067,27.84-12.491,41.184a149.9,149.9,0,0,0,32.2,61.231s16.037,20.171-8.468,29.275c-19.618,7.286-27.193,4.834-33.091-1.053A199.439,199.439,0,0,1,52.61,217.644c0-.024,3.54-18.5-19.389-33.968-20.06-13.538-24.611,1.047-24.611,1.047C37.314,78.309,134.512,0,249.994,0A249.233,249.233,0,0,1,427.166,73.622s10.415,11.209-11.332,21.812M45.859,149.244c-5.322-4.405-13.679.894-16.09,7.363s-1.929,10.173,7.363,16.084c5.827,3.71,14.66,6.086,17.072-.389s4.446-12.473-8.345-23.058m84.384,61.884c-11.115,0-14.3,5.516-15.743,11.867s-1.612,13.814,10.815,12.967c6.9-.464,12.443-4.875,13.9-11.226s-2.035-13.608-8.968-13.608M170.1,100.915c6.857.835,21.4-9.015,22.247-15.872a12.506,12.506,0,0,0-10.9-13.92c-6.857-.829-11.791,4.334-13.932,10.9-4.728,14.449-4.275,18.06,2.582,18.9M198.26,290.678c-.429-7.1-6.827-16.819-13.261-18.813s-17.266.847-15.437,9.051c1.547,6.974,5.24,16.007,11.679,18.007s17.472-.671,17.019-8.245M242.014,166c-4.946,4.575-8.157,15.461-1.37,18.854,6.369,3.187,17.977,2.5,22.923-2.07s7.9-15.378-.112-17.9c-6.821-2.153-16.49-3.464-21.441,1.111" fill="#fff"/>
  </g>
</svg>
