<?xml version="1.0" encoding="UTF-8" standalone="no"?>
<svg
   viewBox="0 0 85.007989 85.016543"
   version="1.1"
   id="svg22"
   sodipodi:docname="ccp-orb-grayscale2.svg"
   inkscape:version="1.1.1 (3bf5ae0d25, 2021-09-20)"
   width="85.007988"
   height="85.016541"
   xmlns:inkscape="http://www.inkscape.org/namespaces/inkscape"
   xmlns:sodipodi="http://sodipodi.sourceforge.net/DTD/sodipodi-0.dtd"
   xmlns="http://www.w3.org/2000/svg"
   xmlns:svg="http://www.w3.org/2000/svg">
  <sodipodi:namedview
     id="namedview24"
     pagecolor="#ffffff"
     bordercolor="#666666"
     borderopacity="1.0"
     inkscape:pageshadow="2"
     inkscape:pageopacity="0.0"
     inkscape:pagecheckerboard="0"
     showgrid="false"
     inkscape:zoom="2.3961047"
     inkscape:cx="68.861766"
     inkscape:cy="42.360419"
     inkscape:window-width="1920"
     inkscape:window-height="1017"
     inkscape:window-x="-8"
     inkscape:window-y="-8"
     inkscape:window-maximized="1"
     inkscape:current-layer="svg22"
     fit-margin-top="0"
     fit-margin-left="0"
     fit-margin-right="0"
     fit-margin-bottom="0" />
  <defs
     id="defs4">
    <style
       id="style2">
      .a {
        fill: #666;
      }

      .b {
        fill: #b2b2b2;
      }
    </style>
  </defs>
  <g
     id="g12"
     transform="translate(-141.68654,-28.366834)">
    <path
       d="m 161.22,66.27 a 2.33,2.33 0 0 1 2.67,-2 1.78,1.78 0 0 1 1.53,2.32 2.52,2.52 0 0 1 -2.37,1.91 c -2.11,0.12 -2.05,-1.15 -1.83,-2.23 z m -13.16,-8.55 c 1,0.63 2.49,1 2.9,-0.07 0.41,-1.07 0.76,-2.12 -1.42,-3.92 -0.9,-0.75 -2.32,0.15 -2.73,1.25 -0.41,1.1 -0.33,1.73 1.25,2.74 z M 216,73 c -1.73,-1.92 -2.3,-2.16 -3,-1.22 -0.7,0.94 -0.49,3.92 0.45,4.62 a 2.12,2.12 0 0 0 3,-0.42 A 2.32,2.32 0 0 0 216,73 Z m 0.05,9.89 a 33.86,33.86 0 0 1 -14.8,17.43 33.31,33.31 0 0 1 -5,2.36 c 0,0 -3,1.06 -3.35,5.75 -0.29,4.1 2.25,3.53 2.25,3.53 a 42.55,42.55 0 0 1 -52,-52.19 c 0,0 0.77,-2.48 4.18,-0.18 3.9,2.63 3.3,5.77 3.3,5.77 a 34.52,34.52 0 0 0 -0.45,5.51 33.87,33.87 0 0 0 7.7,21.53 c 1,1 2.3,1.42 5.63,0.18 4.17,-1.55 1.44,-5 1.44,-5 a 25.57,25.57 0 0 1 -5.47,-10.41 c -0.61,-2.27 -0.49,-6.33 2.12,-7 2.27,-0.59 5.23,1.6 6.15,5 a 17.07,17.07 0 0 0 1.78,4.24 c 1.19,1.93 3.3,2.6 6.24,1.52 2.94,-1.08 2.31,-3.78 1.12,-5.78 a 4.28,4.28 0 0 1 1.53,-5.93 4.23,4.23 0 0 1 5.78,1.59 v 0 a 4.21,4.21 0 0 0 1.51,5.79 4.27,4.27 0 0 0 5.9,-1.64 c 1.14,-2 3.27,-3.84 5.57,-1.92 2.3,1.92 2.88,4.17 1.8,6.16 a 16.66,16.66 0 0 1 -2.79,3.66 c -2.52,2.52 -2.94,6.18 -1.29,7.86 1.89,1.92 5.47,0 7.13,-1.67 a 25.51,25.51 0 0 0 6.28,-9.94 c 0,0 1.61,-4.08 5,-1.25 2.83,2.33 3.11,3.66 2.75,5.03 z m -47,12.42 c -0.46,-1.08 -3.14,-2.39 -4.22,-1.93 a 2.13,2.13 0 0 0 -1.13,2.79 2.3,2.3 0 0 0 2.79,1.12 c 2.57,-0.53 3.06,-0.9 2.6,-1.98 z M 191,108.79 c 0.05,-1.18 -0.35,-2.68 -1.51,-2.48 -1.16,0.2 -2.21,0.4 -2.69,3.19 -0.19,1.15 1.3,1.93 2.46,1.74 1.16,-0.19 1.63,-0.58 1.74,-2.45 z m 1.82,-18.37 a 2.5,2.5 0 0 0 -2.82,-1.09 1.77,1.77 0 0 0 -1.25,2.48 2.36,2.36 0 0 0 3.09,1.31 c 1.02,-0.33 2.16,-0.94 0.95,-2.7 z m 2.86,-10.34 c 0.89,-0.82 1.91,-2.13 1.66,-3.25 -0.25,-1.12 -1.59,-2.51 -2.66,-1.8 A 4,4 0 0 0 193,78.58 c 0.26,1.12 1.59,2.47 2.65,1.5 z m -23.09,-0.9 c 1.1,0.34 3,-0.11 2.9,-1.4 a 4.06,4.06 0 0 0 -2.26,-3.2 c -1.09,-0.34 -2.93,0.15 -2.62,1.54 0.23,1.19 0.86,2.72 1.95,3.06 z"
       id="path6" />
    <path
       class="a"
       d="m 214.38,40.87 c 0,0 1.77,1.91 -1.92,3.71 -4.23,2.06 -6.65,0 -6.66,0 a 32.63,32.63 0 0 0 -4.54,-3.14 33.87,33.87 0 0 0 -22.49,-4.1 c -1.37,0.37 -2.38,1.28 -3,4.79 -0.75,4.38 3.59,3.73 3.59,3.73 a 25.44,25.44 0 0 1 11.75,0.47 c 2.27,0.61 5.72,2.74 5,5.34 -0.63,2.26 -4,3.73 -7.45,2.81 a 16.89,16.89 0 0 0 -4.56,-0.59 c -2.27,0.07 -3.9,1.56 -4.44,4.65 -0.54,3.09 2.12,3.89 4.45,3.85 a 4.29,4.29 0 0 1 4.37,4.3 4.23,4.23 0 0 1 -4.26,4.21 v 0 a 4.22,4.22 0 0 0 1.51,5.79 4.27,4.27 0 0 0 5.9,-1.64 c 1.14,-2 3.27,-3.84 5.57,-1.92 2.3,1.92 2.88,4.17 1.8,6.16 a 16.66,16.66 0 0 1 -2.79,3.66 c -2.52,2.52 -2.94,6.18 -1.29,7.86 1.89,1.92 5.47,0 7.13,-1.67 a 25.51,25.51 0 0 0 6.28,-9.94 c 0,0 1.61,-4.08 5,-1.25 2.74,2.27 3,3.6 2.66,5 a 33.86,33.86 0 0 1 -14.8,17.43 34.39,34.39 0 0 1 -5,2.37 c 0,0 -3,1 -3.35,5.74 -0.29,4.1 2.25,3.53 2.25,3.53 A 42.51,42.51 0 0 0 214.3,40.93 Z m -27.82,18.57 a 4.08,4.08 0 0 1 -3.89,0.35 c -1.16,-0.58 -0.61,-2.43 0.23,-3.21 0.84,-0.78 2.49,-0.55 3.64,-0.19 1.37,0.43 0.86,2.27 0.02,3.05 z m 13.6,-2.9 a 1.76,1.76 0 0 1 -2.76,0.16 2.52,2.52 0 0 1 -0.48,-3 c 0.94,-1.9 2,-1.24 2.83,-0.49 a 2.33,2.33 0 0 1 0.41,3.33 z m 13.58,-10.45 c 1.66,-0.86 2.25,-0.62 3,0.29 0.75,0.91 0.82,2.58 -0.28,3 -2.65,1 -3.36,0.18 -4.1,-0.73 -0.74,-0.91 0.34,-2.01 1.38,-2.56 z M 216.43,76 a 2.12,2.12 0 0 1 -3,0.42 c -0.94,-0.7 -1.15,-3.68 -0.45,-4.62 0.7,-0.94 1.28,-0.7 3,1.22 a 2.32,2.32 0 0 1 0.45,2.98 z m -2.05,-35.11 z m -27.61,68.61 c 0.48,-2.79 1.53,-3 2.69,-3.19 1.16,-0.19 1.56,1.3 1.51,2.48 -0.08,1.87 -0.59,2.25 -1.74,2.45 -1.15,0.2 -2.65,-0.59 -2.46,-1.74 z m 5,-16.38 c 1.06,-0.33 2.17,-0.94 1,-2.7 a 2.5,2.5 0 0 0 -2.77,-1.09 1.77,1.77 0 0 0 -1.25,2.48 2.36,2.36 0 0 0 3.05,1.31 z m 3.85,-13 c 0.89,-0.82 1.91,-2.13 1.66,-3.25 -0.25,-1.12 -1.59,-2.51 -2.66,-1.8 A 4,4 0 0 0 193,78.58 c 0.26,1.12 1.59,2.47 2.65,1.5 z M 170.23,42.3 c -0.8,2.46 -0.72,3.07 0.44,3.21 1.16,0.14 3.64,-1.53 3.78,-2.69 a 2.11,2.11 0 0 0 -1.85,-2.37 2.31,2.31 0 0 0 -2.37,1.85 z"
       id="path8" />
    <path
       class="b"
       d="m 199.75,53.21 a 2.33,2.33 0 0 1 0.41,3.33 1.76,1.76 0 0 1 -2.76,0.16 2.52,2.52 0 0 1 -0.48,-3 c 0.94,-1.9 2.02,-1.24 2.83,-0.49 z m -34.88,40.17 a 2.13,2.13 0 0 0 -1.13,2.79 2.3,2.3 0 0 0 2.79,1.12 c 2.53,-0.53 3,-0.9 2.56,-2 -0.44,-1.1 -3.09,-2.37 -4.22,-1.91 z m 51.86,-47 c -0.74,-0.91 -1.33,-1.15 -3,-0.29 -1,0.55 -2.14,1.64 -1.39,2.55 0.75,0.91 1.45,1.71 4.1,0.73 1.11,-0.37 1.04,-2.09 0.29,-2.99 z m -4.27,-1.8 c -4.23,2.06 -6.65,0 -6.66,0 a 32.63,32.63 0 0 0 -4.54,-3.14 33.87,33.87 0 0 0 -22.49,-4.1 c -1.37,0.37 -2.38,1.28 -3,4.79 -0.75,4.38 3.59,3.73 3.59,3.73 a 25.44,25.44 0 0 1 11.75,0.47 c 2.27,0.61 5.72,2.74 5,5.34 -0.63,2.26 -4,3.73 -7.45,2.81 a 16.89,16.89 0 0 0 -4.56,-0.59 c -2.27,0.07 -3.9,1.56 -4.44,4.65 -0.54,3.09 2.12,3.89 4.45,3.85 a 4.29,4.29 0 0 1 4.37,4.3 4.23,4.23 0 0 1 -4.26,4.21 v 0 a 4.23,4.23 0 0 0 -5.78,-1.59 4.28,4.28 0 0 0 -1.44,5.9 c 1.19,2 1.69,4.75 -1.12,5.78 -2.81,1.03 -5.05,0.41 -6.24,-1.52 a 17.07,17.07 0 0 1 -1.78,-4.24 c -0.92,-3.45 -3.88,-5.64 -6.15,-5 -2.61,0.68 -2.73,4.74 -2.12,7 A 25.57,25.57 0 0 0 165,87.6 c 0,0 2.73,3.43 -1.44,5 -3.33,1.24 -4.62,0.82 -5.63,-0.18 a 33.87,33.87 0 0 1 -7.7,-21.53 34.52,34.52 0 0 1 0.45,-5.51 c 0,0 0.6,-3.14 -3.3,-5.77 -3.41,-2.3 -4.18,0.18 -4.18,0.18 a 42.51,42.51 0 0 1 71.17,-18.9 v 0 c 0,0 1.78,1.89 -1.91,3.69 z m -62.92,9.15 c -0.9,-0.75 -2.32,0.15 -2.73,1.25 -0.41,1.1 -0.33,1.73 1.25,2.74 1,0.63 2.49,1 2.9,-0.07 0.41,-1.07 0.76,-2.12 -1.42,-3.92 z m 14.35,10.52 a 2.33,2.33 0 0 0 -2.67,2 c -0.25,1.08 -0.28,2.35 1.83,2.21 a 2.52,2.52 0 0 0 2.37,-1.91 1.78,1.78 0 0 0 -1.53,-2.3 z m 6.78,-18.74 c 1.17,0.15 3.64,-1.53 3.78,-2.69 a 2.11,2.11 0 0 0 -1.85,-2.37 2.31,2.31 0 0 0 -2.37,1.85 c -0.8,2.46 -0.72,3.07 0.44,3.21 z m 4.79,32.27 a 4.06,4.06 0 0 0 -2.26,-3.2 c -1.09,-0.34 -2.93,0.15 -2.62,1.54 0.26,1.19 0.89,2.72 2,3.06 1.11,0.34 2.96,-0.11 2.88,-1.4 z m 7.44,-21.2 c -0.84,0.78 -1.39,2.63 -0.23,3.21 a 4.08,4.08 0 0 0 3.89,-0.35 c 0.84,-0.78 1.35,-2.62 0,-3 -1.17,-0.44 -2.82,-0.64 -3.66,0.14 z"
       id="path10" />
  </g>
</svg>
