<?xml version="1.0" encoding="UTF-8" standalone="no"?>
<svg
   viewBox="0 0 198.34453 85.050006"
   version="1.1"
   id="svg22"
   sodipodi:docname="ccp-orb-minerva-grayscale.svg"
   inkscape:version="1.1.1 (3bf5ae0d25, 2021-09-20)"
   width="198.34453"
   height="85.050003"
   xmlns:inkscape="http://www.inkscape.org/namespaces/inkscape"
   xmlns:sodipodi="http://sodipodi.sourceforge.net/DTD/sodipodi-0.dtd"
   xmlns="http://www.w3.org/2000/svg"
   xmlns:svg="http://www.w3.org/2000/svg">
  <sodipodi:namedview
     id="namedview24"
     pagecolor="#ffffff"
     bordercolor="#666666"
     borderopacity="1.0"
     inkscape:pageshadow="2"
     inkscape:pageopacity="0.0"
     inkscape:pagecheckerboard="0"
     showgrid="false"
     inkscape:zoom="2.3961047"
     inkscape:cx="182.37934"
     inkscape:cy="42.360419"
     inkscape:window-width="1920"
     inkscape:window-height="1017"
     inkscape:window-x="-8"
     inkscape:window-y="-8"
     inkscape:window-maximized="1"
     inkscape:current-layer="svg22"
     fit-margin-top="0"
     fit-margin-left="0"
     fit-margin-right="0"
     fit-margin-bottom="0" />
  <defs
     id="defs4">
    <style
       id="style2">
      .a {
        fill: #666;
      }

      .b {
        fill: #b2b2b2;
      }
    </style>
  </defs>
  <g
     id="g12"
     transform="translate(-28.350001,-28.339996)">
    <path
       d="m 161.22,66.27 a 2.33,2.33 0 0 1 2.67,-2 1.78,1.78 0 0 1 1.53,2.32 2.52,2.52 0 0 1 -2.37,1.91 c -2.11,0.12 -2.05,-1.15 -1.83,-2.23 z m -13.16,-8.55 c 1,0.63 2.49,1 2.9,-0.07 0.41,-1.07 0.76,-2.12 -1.42,-3.92 -0.9,-0.75 -2.32,0.15 -2.73,1.25 -0.41,1.1 -0.33,1.73 1.25,2.74 z M 216,73 c -1.73,-1.92 -2.3,-2.16 -3,-1.22 -0.7,0.94 -0.49,3.92 0.45,4.62 a 2.12,2.12 0 0 0 3,-0.42 A 2.32,2.32 0 0 0 216,73 Z m 0.05,9.89 a 33.86,33.86 0 0 1 -14.8,17.43 33.31,33.31 0 0 1 -5,2.36 c 0,0 -3,1.06 -3.35,5.75 -0.29,4.1 2.25,3.53 2.25,3.53 a 42.55,42.55 0 0 1 -52,-52.19 c 0,0 0.77,-2.48 4.18,-0.18 3.9,2.63 3.3,5.77 3.3,5.77 a 34.52,34.52 0 0 0 -0.45,5.51 33.87,33.87 0 0 0 7.7,21.53 c 1,1 2.3,1.42 5.63,0.18 4.17,-1.55 1.44,-5 1.44,-5 a 25.57,25.57 0 0 1 -5.47,-10.41 c -0.61,-2.27 -0.49,-6.33 2.12,-7 2.27,-0.59 5.23,1.6 6.15,5 a 17.07,17.07 0 0 0 1.78,4.24 c 1.19,1.93 3.3,2.6 6.24,1.52 2.94,-1.08 2.31,-3.78 1.12,-5.78 a 4.28,4.28 0 0 1 1.53,-5.93 4.23,4.23 0 0 1 5.78,1.59 v 0 a 4.21,4.21 0 0 0 1.51,5.79 4.27,4.27 0 0 0 5.9,-1.64 c 1.14,-2 3.27,-3.84 5.57,-1.92 2.3,1.92 2.88,4.17 1.8,6.16 a 16.66,16.66 0 0 1 -2.79,3.66 c -2.52,2.52 -2.94,6.18 -1.29,7.86 1.89,1.92 5.47,0 7.13,-1.67 a 25.51,25.51 0 0 0 6.28,-9.94 c 0,0 1.61,-4.08 5,-1.25 2.83,2.33 3.11,3.66 2.75,5.03 z m -47,12.42 c -0.46,-1.08 -3.14,-2.39 -4.22,-1.93 a 2.13,2.13 0 0 0 -1.13,2.79 2.3,2.3 0 0 0 2.79,1.12 c 2.57,-0.53 3.06,-0.9 2.6,-1.98 z M 191,108.79 c 0.05,-1.18 -0.35,-2.68 -1.51,-2.48 -1.16,0.2 -2.21,0.4 -2.69,3.19 -0.19,1.15 1.3,1.93 2.46,1.74 1.16,-0.19 1.63,-0.58 1.74,-2.45 z m 1.82,-18.37 a 2.5,2.5 0 0 0 -2.82,-1.09 1.77,1.77 0 0 0 -1.25,2.48 2.36,2.36 0 0 0 3.09,1.31 c 1.02,-0.33 2.16,-0.94 0.95,-2.7 z m 2.86,-10.34 c 0.89,-0.82 1.91,-2.13 1.66,-3.25 -0.25,-1.12 -1.59,-2.51 -2.66,-1.8 A 4,4 0 0 0 193,78.58 c 0.26,1.12 1.59,2.47 2.65,1.5 z m -23.09,-0.9 c 1.1,0.34 3,-0.11 2.9,-1.4 a 4.06,4.06 0 0 0 -2.26,-3.2 c -1.09,-0.34 -2.93,0.15 -2.62,1.54 0.23,1.19 0.86,2.72 1.95,3.06 z"
       id="path6" />
    <path
       class="a"
       d="m 214.38,40.87 c 0,0 1.77,1.91 -1.92,3.71 -4.23,2.06 -6.65,0 -6.66,0 a 32.63,32.63 0 0 0 -4.54,-3.14 33.87,33.87 0 0 0 -22.49,-4.1 c -1.37,0.37 -2.38,1.28 -3,4.79 -0.75,4.38 3.59,3.73 3.59,3.73 a 25.44,25.44 0 0 1 11.75,0.47 c 2.27,0.61 5.72,2.74 5,5.34 -0.63,2.26 -4,3.73 -7.45,2.81 a 16.89,16.89 0 0 0 -4.56,-0.59 c -2.27,0.07 -3.9,1.56 -4.44,4.65 -0.54,3.09 2.12,3.89 4.45,3.85 a 4.29,4.29 0 0 1 4.37,4.3 4.23,4.23 0 0 1 -4.26,4.21 v 0 a 4.22,4.22 0 0 0 1.51,5.79 4.27,4.27 0 0 0 5.9,-1.64 c 1.14,-2 3.27,-3.84 5.57,-1.92 2.3,1.92 2.88,4.17 1.8,6.16 a 16.66,16.66 0 0 1 -2.79,3.66 c -2.52,2.52 -2.94,6.18 -1.29,7.86 1.89,1.92 5.47,0 7.13,-1.67 a 25.51,25.51 0 0 0 6.28,-9.94 c 0,0 1.61,-4.08 5,-1.25 2.74,2.27 3,3.6 2.66,5 a 33.86,33.86 0 0 1 -14.8,17.43 34.39,34.39 0 0 1 -5,2.37 c 0,0 -3,1 -3.35,5.74 -0.29,4.1 2.25,3.53 2.25,3.53 A 42.51,42.51 0 0 0 214.3,40.93 Z m -27.82,18.57 a 4.08,4.08 0 0 1 -3.89,0.35 c -1.16,-0.58 -0.61,-2.43 0.23,-3.21 0.84,-0.78 2.49,-0.55 3.64,-0.19 1.37,0.43 0.86,2.27 0.02,3.05 z m 13.6,-2.9 a 1.76,1.76 0 0 1 -2.76,0.16 2.52,2.52 0 0 1 -0.48,-3 c 0.94,-1.9 2,-1.24 2.83,-0.49 a 2.33,2.33 0 0 1 0.41,3.33 z m 13.58,-10.45 c 1.66,-0.86 2.25,-0.62 3,0.29 0.75,0.91 0.82,2.58 -0.28,3 -2.65,1 -3.36,0.18 -4.1,-0.73 -0.74,-0.91 0.34,-2.01 1.38,-2.56 z M 216.43,76 a 2.12,2.12 0 0 1 -3,0.42 c -0.94,-0.7 -1.15,-3.68 -0.45,-4.62 0.7,-0.94 1.28,-0.7 3,1.22 a 2.32,2.32 0 0 1 0.45,2.98 z m -2.05,-35.11 z m -27.61,68.61 c 0.48,-2.79 1.53,-3 2.69,-3.19 1.16,-0.19 1.56,1.3 1.51,2.48 -0.08,1.87 -0.59,2.25 -1.74,2.45 -1.15,0.2 -2.65,-0.59 -2.46,-1.74 z m 5,-16.38 c 1.06,-0.33 2.17,-0.94 1,-2.7 a 2.5,2.5 0 0 0 -2.77,-1.09 1.77,1.77 0 0 0 -1.25,2.48 2.36,2.36 0 0 0 3.05,1.31 z m 3.85,-13 c 0.89,-0.82 1.91,-2.13 1.66,-3.25 -0.25,-1.12 -1.59,-2.51 -2.66,-1.8 A 4,4 0 0 0 193,78.58 c 0.26,1.12 1.59,2.47 2.65,1.5 z M 170.23,42.3 c -0.8,2.46 -0.72,3.07 0.44,3.21 1.16,0.14 3.64,-1.53 3.78,-2.69 a 2.11,2.11 0 0 0 -1.85,-2.37 2.31,2.31 0 0 0 -2.37,1.85 z"
       id="path8" />
    <path
       class="b"
       d="m 199.75,53.21 a 2.33,2.33 0 0 1 0.41,3.33 1.76,1.76 0 0 1 -2.76,0.16 2.52,2.52 0 0 1 -0.48,-3 c 0.94,-1.9 2.02,-1.24 2.83,-0.49 z m -34.88,40.17 a 2.13,2.13 0 0 0 -1.13,2.79 2.3,2.3 0 0 0 2.79,1.12 c 2.53,-0.53 3,-0.9 2.56,-2 -0.44,-1.1 -3.09,-2.37 -4.22,-1.91 z m 51.86,-47 c -0.74,-0.91 -1.33,-1.15 -3,-0.29 -1,0.55 -2.14,1.64 -1.39,2.55 0.75,0.91 1.45,1.71 4.1,0.73 1.11,-0.37 1.04,-2.09 0.29,-2.99 z m -4.27,-1.8 c -4.23,2.06 -6.65,0 -6.66,0 a 32.63,32.63 0 0 0 -4.54,-3.14 33.87,33.87 0 0 0 -22.49,-4.1 c -1.37,0.37 -2.38,1.28 -3,4.79 -0.75,4.38 3.59,3.73 3.59,3.73 a 25.44,25.44 0 0 1 11.75,0.47 c 2.27,0.61 5.72,2.74 5,5.34 -0.63,2.26 -4,3.73 -7.45,2.81 a 16.89,16.89 0 0 0 -4.56,-0.59 c -2.27,0.07 -3.9,1.56 -4.44,4.65 -0.54,3.09 2.12,3.89 4.45,3.85 a 4.29,4.29 0 0 1 4.37,4.3 4.23,4.23 0 0 1 -4.26,4.21 v 0 a 4.23,4.23 0 0 0 -5.78,-1.59 4.28,4.28 0 0 0 -1.44,5.9 c 1.19,2 1.69,4.75 -1.12,5.78 -2.81,1.03 -5.05,0.41 -6.24,-1.52 a 17.07,17.07 0 0 1 -1.78,-4.24 c -0.92,-3.45 -3.88,-5.64 -6.15,-5 -2.61,0.68 -2.73,4.74 -2.12,7 A 25.57,25.57 0 0 0 165,87.6 c 0,0 2.73,3.43 -1.44,5 -3.33,1.24 -4.62,0.82 -5.63,-0.18 a 33.87,33.87 0 0 1 -7.7,-21.53 34.52,34.52 0 0 1 0.45,-5.51 c 0,0 0.6,-3.14 -3.3,-5.77 -3.41,-2.3 -4.18,0.18 -4.18,0.18 a 42.51,42.51 0 0 1 71.17,-18.9 v 0 c 0,0 1.78,1.89 -1.91,3.69 z m -62.92,9.15 c -0.9,-0.75 -2.32,0.15 -2.73,1.25 -0.41,1.1 -0.33,1.73 1.25,2.74 1,0.63 2.49,1 2.9,-0.07 0.41,-1.07 0.76,-2.12 -1.42,-3.92 z m 14.35,10.52 a 2.33,2.33 0 0 0 -2.67,2 c -0.25,1.08 -0.28,2.35 1.83,2.21 a 2.52,2.52 0 0 0 2.37,-1.91 1.78,1.78 0 0 0 -1.53,-2.3 z m 6.78,-18.74 c 1.17,0.15 3.64,-1.53 3.78,-2.69 a 2.11,2.11 0 0 0 -1.85,-2.37 2.31,2.31 0 0 0 -2.37,1.85 c -0.8,2.46 -0.72,3.07 0.44,3.21 z m 4.79,32.27 a 4.06,4.06 0 0 0 -2.26,-3.2 c -1.09,-0.34 -2.93,0.15 -2.62,1.54 0.26,1.19 0.89,2.72 2,3.06 1.11,0.34 2.96,-0.11 2.88,-1.4 z m 7.44,-21.2 c -0.84,0.78 -1.39,2.63 -0.23,3.21 a 4.08,4.08 0 0 0 3.89,-0.35 c 0.84,-0.78 1.35,-2.62 0,-3 -1.17,-0.44 -2.82,-0.64 -3.66,0.14 z"
       id="path10" />
  </g>
  <rect
     x="-99.599998"
     y="-85.040001"
     width="0.76999998"
     height="85.040001"
     transform="scale(-1)"
     id="rect16" />
  <path
     d="m 42.519999,0.01000366 a 42.52,42.52 0 1 0 42.52,42.51000034 42.57,42.57 0 0 0 -42.52,-42.51000034 z m 0,83.85000034 a 41.34,41.34 0 1 1 41.33,-41.34 41.38,41.38 0 0 1 -41.33,41.34 z m 24.94,-44.58 c -0.58,-1.24 -0.18,-2 -0.36,-2.94 a 45.18,45.18 0 0 0 -1.74,-4.37 c -0.3,-0.71 1.52,-0.53 0.18,-3.11 0,-0.07 1.87,-0.78 0,-2.23 a 10.49,10.49 0 0 1 -2.41,-2.7 0.41,0.41 0 0 1 0,-0.52 c 1.08,-1 1.11,-2.34 -0.07,-3 -0.84,-0.51 -1.81,0 -2.71,0.59 -0.29,0.19 -0.44,0.3 -0.74,0.18 a 5.69,5.69 0 0 1 -0.76,-0.52 3.27,3.27 0 0 0 1.23,-2.29 5.87,5.87 0 0 0 -4.11,0.4 l -0.16,-0.11 a 2.91,2.91 0 0 0 0.34,-2.8 v 0 a 33.29,33.29 0 0 1 5,-5.4 v 0 c 0.11,-0.11 0.15,-0.23 -0.06,-0.36 -0.21,-0.1300003 -0.22,-0.1300003 -0.43,-0.2500003 A 37.41,37.41 0 0 0 5.1399988,42.520004 a 38.19,38.19 0 0 0 16.0000002,30.61 5.63,5.63 0 0 0 1.12,0.66 0.36,0.36 0 0 0 0.44,-0.08 l 0.14,-0.19 a 0.52,0.52 0 0 0 0.13,-0.34 c 0,-0.28 -0.39,-0.52 -0.85,-1.21 a 11.2,11.2 0 0 1 -1.93,-6.13 8.88,8.88 0 0 1 1.84,-5.52 c 1.49,1.55 4.74,4.41 4.67,7 -0.08,2.92 -2.81,2.78 -2.22,5 0.37,1.37 1.4,0.81 1.57,1.85 0.31,1.8 2.74,3 3.8,2.8 0.25,0 0.47,0.17 1,0.69 0.72,0.73 2.5,0.63 3.29,0.49 0.79,-0.14 1.69,0.55 3.26,0.37 2,-0.21 2.46,-0.36 3.29,-0.38 a 101,101 0 0 1 14.61,0.73 c 1,0.14 1.25,-0.28 0.82,-1 a 11.56,11.56 0 0 1 -1.11,-10.1 c 2,0.14 4.93,0.69 8.77,-1.62 a 4.53,4.53 0 0 0 2.05,-3.85 9.72,9.72 0 0 1 -0.19,-2.73 c 0.29,-1.1 0.5,-1.08 0.82,-1.3 1.47,-1 0.41,-1.85 0.18,-1.93 a 1.33,1.33 0 0 0 0.42,-1.86 c -0.26,-0.28 -1.06,-2.52 -0.14,-3 0.92,-0.48 2.12,-0.72 3.26,-1.22 a 1.85,1.85 0 0 0 1,-2.46 c -0.63,-1.47 -3.62,-8.33 -3.72,-8.52 z m -41.25,33.27 c -0.29,0 -1.21,0.09 -1,-1.12 0.12,-0.74 0.93,-1 1.34,-0.63 -0.09,0.58 -0.28,1.14 -0.34,1.75 z m 35.23,-51 c 0.48,-0.3 1,-0.43 1.31,-0.13 1.06,1 -1.16,1.64 -0.7,2.44 a 12.26,12.26 0 0 0 3,3.41 c 0.5,0.39 0.57,1.25 -1.34,1.65 -1.91,0.4 -9.57,2.41 -13.61,6.69 -5,5.35 -8.26,12.28 -8.7,11.33 -0.44,-0.95 -1.45,-1.12 -1.29,-1.39 7.28,-12.51 18.65,-22.33 21.33,-24.01 z m 3.32,8.78 c -0.41,1.19 -3.71,2.25 -3.55,1.42 0.07,-0.38 0,-0.88 0.26,-0.92 0.26,-0.04 1.4,-0.43 3,-0.84 0.18,-0.06 0.4,0.04 0.29,0.33 z m -8.35,2.17 c -0.09,-0.49 3.45,-1.68 3.58,-1.33 0.22,0.65 -0.73,2.4 -1.92,2.83 -1.35,0.5 -1.91,0.35 -1.86,0.16 a 5.22,5.22 0 0 0 0.2,-1.67 z m -8.22,18.46 c -1.63,1 -2.52,-0.91 -2.75,-1.25 a 1.57,1.57 0 0 1 -0.21,-1.28 10.36,10.36 0 0 0 -0.17,-3.77 c -0.16,-1.07 2,-3.73 2.55,-4.19 0.55,-0.46 1.27,0.24 1.32,1 a 3.19,3.19 0 0 1 -1.6,2.91 c -1.05,0.78 -1.25,1.8 -1.05,2.07 0.08,0.1 0.55,0.11 0.76,-0.33 0.63,-1.35 2.43,-2 2.72,-2.73 a 3.58,3.58 0 0 0 0.08,-2.26 c 0,-0.41 0.35,-0.51 0.65,-0.46 0.3,0.05 0.55,0.57 0.75,1.08 1.16,3 -1.77,4.88 -2.24,5.6 -0.22,0.36 0.45,2.83 -0.81,3.61 z m 2.46,-11.79 c -0.87,0.59 -2.13,-0.21 -1.88,-0.57 a 17.63,17.63 0 0 1 4.65,-4.46 c 1.39,-0.87 1.54,-0.93 1.61,-0.44 a 4.18,4.18 0 0 1 -1.06,3 3.33,3.33 0 0 1 -2.34,1 c -0.33,0.15 -0.32,1.01 -0.98,1.47 z m -7.8,10.38 c -0.4,-0.09 -0.55,-0.88 -0.47,-1.18 a 11.47,11.47 0 0 1 1.62,-2.61 c 0.1,-0.13 0.29,0 0.31,0.14 0.22,1.65 -0.01,3.97 -1.47,3.65 z m 13,-30 a 7.51,7.51 0 0 1 3,-0.65 c 0.33,0 -0.74,1.95 -2.65,2.77 a 8.54,8.54 0 0 1 -3.61,0.91 c -0.2,-0.15 1.72,-2.35 3.28,-3.06 z m -33.71,31.66 a 3.27,3.27 0 0 0 -1.18,-1 9.13,9.13 0 0 0 -1.44,3.62 25.8,25.8 0 0 1 -3,-11.31 c -0.59,-14.33 11.42,-25.86 26.07,-25.86 a 23.29,23.29 0 0 1 9.06,1.88 10.64,10.64 0 0 0 -1.49,2.69 c 0,-0.77 -0.22,-1.38 -0.16,-1.86 0,-0.3 -2.08,0.35 -3.95,3.34 a 7.19,7.19 0 0 0 -0.88,2.16 4.42,4.42 0 0 0 -0.38,-2 6.52,6.52 0 0 0 -3.44,3.55 8.32,8.32 0 0 0 -0.45,1.39 2.72,2.72 0 0 0 -0.36,-1.32 6.42,6.42 0 0 0 -3.49,3.61 6.9,6.9 0 0 0 -0.4,1.89 c -0.2,-0.94 -0.56,-1.51 -0.68,-1.36 -0.77,1 -2.28,1.41 -3.09,3.89 a 5.79,5.79 0 0 0 -0.27,1.7 c -0.33,-0.84 -0.8,-1.32 -0.91,-1.3 a 8.28,8.28 0 0 0 -2.84,4.41 6.45,6.45 0 0 0 0.04,2.33 10.65,10.65 0 0 1 -1.25,-1.93 6.16,6.16 0 0 0 -2.35,4.34 8.62,8.62 0 0 0 0.3,2.47 c -0.65,-1.17 -1.56,-1.72 -1.66,-1.65 a 7.46,7.46 0 0 0 -2,4.47 4.72,4.72 0 0 0 0.2,1.85 z m 30,-32.26 c 1.15,-1.37 3.11,-2.47 3.33,-2.33 0.22,0.14 -0.33,2.25 -1.59,3.49 a 12.79,12.79 0 0 1 -3.48,2.46 c -0.23,-0.01 0.7,-2.39 1.74,-3.62 z m -3.74,5.28 a 8.67,8.67 0 0 0 -2.28,2.57 c -0.22,0.36 -0.76,-2 0.69,-4.3 a 7.73,7.73 0 0 1 2.63,-2.48 c -0.13,0.56 0.86,2.64 -1.04,4.21 z m -4.1,3 c -1.37,2 -1.45,1.34 -3,3.34 a 9.74,9.74 0 0 1 0.43,-3.8 6.67,6.67 0 0 1 2.52,-3 c 0.27,-0.04 0.8,2.37 0.05,3.5 z m -4.49,4.08 c -0.7,1.23 -1.34,1 -2.51,2.69 -0.13,0.2 -0.44,-1.44 0.26,-3.65 a 5.28,5.28 0 0 1 2.4,-2.8 c 0.26,-0.03 0.69,2.34 -0.15,3.8 z m -4.16,4.35 c -0.72,1.56 -1.18,1.61 -2,2.59 -0.15,0.16 -0.77,-1.49 -0.17,-3.57 a 6,6 0 0 1 2.17,-2.82 c 0.16,-0.2 0.75,2.16 0,3.8 z m -3.4,2.68 a 3.92,3.92 0 0 1 -0.19,1.21 8.91,8.91 0 0 1 -2.11,3.29 5.36,5.36 0 0 1 -0.65,-2.37 6.06,6.06 0 0 1 2.1,-4.51 c 0.3,0.01 0.84,1.3 0.84,2.4 z m -3.46,5.18 a 6.14,6.14 0 0 1 -2.05,4.38 7.11,7.11 0 0 1 -0.89,-3.07 4.71,4.71 0 0 1 1.43,-4 c 0.21,0.83 1.52,1.38 1.5,2.71 z m -4.89,2.54 a 3.69,3.69 0 0 1 1.65,3.31 4.71,4.71 0 0 1 -1.84,3.82 c -0.39,-1.45 -1.06,-1.76 -1.06,-3.22 a 7.52,7.52 0 0 1 1.24,-3.89 z m 2.95,5.08 a 7.76,7.76 0 0 1 4,-0.6 5.14,5.14 0 0 1 -2.39,3.32 c -1.81,1 -3.84,1.06 -4,0.83 a 4.9,4.9 0 0 1 2.38,-3.53 z m -0.14,-1.37 a 6,6 0 0 1 2.86,-3.39 v 0 a 7.61,7.61 0 0 1 3.8,-0.59 c 0.22,0.09 -0.69,2.26 -2.36,3.06 -1.88,0.91 -2.62,0.39 -4.31,0.94 z m 2.78,-4.78 c 0.07,-0.18 1.42,-2.61 3,-3.35 a 7.25,7.25 0 0 1 3.6,-0.54 5.1,5.1 0 0 1 -2.52,3.08 c -1.78,0.9 -4.17,1.02 -4.09,0.83 z m 3.61,-4.84 a 9.44,9.44 0 0 1 3.38,-3.34 6.14,6.14 0 0 1 3.4,-0.41 4.65,4.65 0 0 1 -2.6,3 9.4,9.4 0 0 1 -4.19,0.77 z m 4.33,-4.78 a 6.8,6.8 0 0 1 3,-3.18 6.72,6.72 0 0 1 3.6,0 c 0.38,0 -0.54,1.84 -2.69,2.63 a 8.58,8.58 0 0 1 -3.92,0.57 z m 4.86,-4.62 a 8.31,8.31 0 0 1 3.29,-3 7.22,7.22 0 0 1 3.71,-0.09 c 0.21,0.09 -1.12,2.06 -3.14,2.67 a 9.13,9.13 0 0 1 -3.87,0.44 z m 4.91,-4 c -0.21,-0.15 1.73,-2.32 3.3,-2.92 a 7.12,7.12 0 0 1 3.35,-0.41 5.34,5.34 0 0 1 -2.87,2.72 7.5,7.5 0 0 1 -3.79,0.65 z m -26.87,44.26 a 36.67,36.67 0 0 1 -14.0000002,-28.49 36.18,36.18 0 0 1 53.0000002,-32 0.16,0.16 0 0 1 0,0.27 38.72,38.72 0 0 0 -4.12,4.62 29.62,29.62 0 0 0 -12.69,-2.82 30,30 0 0 0 -30,30 29.26,29.26 0 0 0 7.22,19.52 9.81,9.81 0 0 0 -0.75,3.82 10.34,10.34 0 0 0 1.34,5.08 z m 0.06,-10.06 v 0 a 28,28 0 0 1 -6.66,-18.44 28.83,28.83 0 0 1 28.79,-28.78 28.48,28.48 0 0 1 12,2.6 7.58,7.58 0 0 0 -1.65,1 25.76,25.76 0 0 0 -10.33,-2.06 27.24,27.24 0 0 0 -27.22,27.2 26,26 0 0 0 6,17 z m 1.43,-2.29 a 5.49,5.49 0 0 1 -1.78,-3.38 v -0.24 a 7.57,7.57 0 0 1 1,-3.65 c 0.2,-0.19 2.16,1.34 2.19,3.53 a 5.79,5.79 0 0 1 -1.41,3.74 z m 3.25,-2.92 a 6.85,6.85 0 0 1 3.77,-0.46 c -0.13,0.1 -0.75,2.37 -2.51,3.25 a 5.06,5.06 0 0 1 -3.56,0.53 c 0.95,-1.01 0.75,-2.55 2.3,-3.29 z m 2.11,18.81 a 4.27,4.27 0 0 1 0.21,-2.93 c 0.7,-0.34 2,-0.48 2,-0.07 a 11.3,11.3 0 0 0 0.12,4.14 c -0.12,0.34 -1.86,0.2 -2.33,-1.11 z m 0.12,-4.47 c -0.14,-0.81 0.63,-1.58 0.62,-3.33 0,-2.15 -2.67,-5.1 -4.47,-7 a 7.78,7.78 0 0 0 3.2,-0.74 6.44,6.44 0 0 0 3.27,-4.2 3.88,3.88 0 0 0 -1.52,-0.15 l 0.3,-0.15 a 6.32,6.32 0 0 0 3.17,-4.5 6.7,6.7 0 0 0 -1.61,-0.11 c 0.26,-0.08 0.52,-0.18 0.79,-0.29 a 5.85,5.85 0 0 0 3.44,-4.28 5,5 0 0 0 -1.4,-0.17 q 0.38,-0.15 0.75,-0.33 a 6.21,6.21 0 0 0 3.27,-4.17 4.57,4.57 0 0 0 -1.31,-0.15 9.8,9.8 0 0 0 1.85,-0.64 5.91,5.91 0 0 0 3.47,-3.89 4.22,4.22 0 0 0 -1.2,-0.23 15.56,15.56 0 0 0 1.76,-0.5 5.64,5.64 0 0 0 3.6,-3.49 c -0.36,0 -0.86,-0.21 -1.51,-0.32 a 10.26,10.26 0 0 0 2.65,-0.54 c 2.89,-1 3.91,-2.72 4,-3.48 a 2.32,2.32 0 0 0 -0.91,-0.32 9.11,9.11 0 0 0 1.87,-0.51 7.67,7.67 0 0 0 3.92,-4 13.22,13.22 0 0 0 1.57,-0.61 7.11,7.11 0 0 0 0.78,-0.4 c 0.13,0.1 0.34,0.25 0.66,0.45 0.32,0.2 0.55,0.33 0.35,0.5 a 102.78,102.78 0 0 0 -19.15,22.56 c -0.08,0.13 -0.24,0.11 -0.5,0.09 -3.22,-0.21 -5,3.62 -3.6,7.22 a 7.84,7.84 0 0 1 -1.83,2.26 c -0.11,0.1 -0.42,0.55 0.1,0.5 0.75,-0.06 1.72,-1.27 2.17,-1.81 0.2,0.24 0.9,0.83 0.56,1.16 a 25.39,25.39 0 0 1 -5.65,4.23 c -1,0.5 1.7,0.85 6.36,-3.36 0.28,-0.25 0.6,1 1,1.49 -0.8,2.64 1.17,7.74 0.86,9.34 a 1.17,1.17 0 0 1 -1.15,1.09 c -4.61,0.09 -5.07,-0.12 -7.42,0.57 -1.09,0.33 -0.8,1 0,0.83 0.8,-0.17 1.85,-0.61 6.85,-0.29 1.22,0.07 2.61,-0.25 2.62,-2.31 0,-1.87 -1.48,-7.45 -1,-8.21 a 2.59,2.59 0 0 0 1.39,0.56 c -0.06,1.82 2.86,7.7 1.56,10.94 -0.48,1.2 -2.61,1.11 -6.25,0.75 -6.15,-0.63 -8.15,0.71 -8.28,-0.03 z m 14.22,4 a 2.27,2.27 0 0 1 -3,-2.58 c 0.24,-0.37 1.76,0.41 2.95,-0.35 0.94,-0.57 1.44,2.51 0.05,2.95 z m -10.93,1.78 c -0.34,-1.49 -0.47,-4.07 0.14,-4.65 0.13,-0.11 2,-0.38 2,0 -0.15,1.78 -0.86,3.76 0.49,5.74 0.43,0.79 -2.18,0.91 -2.63,-1.09 z m 4.59,1.7 c -0.65,-0.16 -2.43,-3 -1,-6.39 0.15,-0.35 2.38,-0.13 2.75,0 0.37,0.13 -0.3,2.78 2.76,4 0.33,0.06 -0.04,3.49 -4.51,2.39 z m 19.13,-9.46 c -1,3.58 -1.55,5 0,8.89 0.21,0.52 0.36,0.91 -0.09,0.83 -3.13,-0.54 -3.8,-1 -13.63,-0.22 -0.7,0.06 0.23,-1.37 0.12,-2.34 a 2.8,2.8 0 0 0 2.63,-2 c 0.37,-1.77 -0.86,-3.07 -0.73,-3.32 1.39,-2.72 -0.09,-5.73 -1.27,-10.77 -0.11,-0.48 0.16,-0.68 0.37,-0.46 6.31,6.83 10.33,8.19 12.51,8.83 0.21,0.12 0.17,0.32 0.09,0.56 z m 16.14,-18.66 c -1.32,1.17 -3.34,1.26 -4.16,2 -0.43,0.39 -0.62,1 -0.16,2.09 0.26,0.63 0.45,0.71 -0.46,1 -1.47,0.39 -1.67,2.32 -3.54,2 -0.75,-0.14 -0.21,0.34 0.06,0.36 a 2.06,2.06 0 0 0 1.87,-0.55 5.23,5.23 0 0 1 1.45,-1.2 c 0.59,-0.23 1.19,-0.21 1.2,0.23 0.01,0.44 -0.74,0.88 -1,1 0.38,0.2 1.55,0.79 0.55,1.47 -0.78,0.53 -1.85,-0.2 -2,-0.29 -0.15,-0.09 -0.68,-0.07 -0.53,0.11 0.58,0.7 2.13,0.52 1.85,0.89 -1.43,1.93 -0.26,3.05 -0.7,5 -0.44,1.95 -3.13,3 -5.19,3.41 -7.04,1.22 -13.92,-4.76 -17.93,-9.3 0.36,-0.86 0.32,-2 0,-1.58 -0.32,0.42 -0.29,1 -1.12,1.21 -1.62,0.41 -2.31,-2.39 -2.81,-2.88 a 6,6 0 0 1 -1.56,-7 2.59,2.59 0 0 1 4.61,-0.46 c 1.22,1.8 0.66,2.82 1.35,3.36 a 2,2 0 0 0 2.21,0 c 0.74,-0.2 0.68,1.75 3.21,1.66 2.72,-0.09 2.41,-4.32 2.79,-4.7 3.49,-3.4 1.71,-6.43 1.08,-7.14 -0.17,-0.18 0.38,-1.43 0.59,-1.48 a 5.33,5.33 0 0 0 3.83,-3.14 c 0,0 3.4,-0.06 4.61,-2.51 0.32,-0.65 1.32,0.63 3.59,-1.15 a 0.36,0.36 0 0 1 0.6,0.13 c 1.46,3.58 2.07,4.56 2,6.39 -0.08,1.33 3.54,8.69 3.8,9.33 0.26,0.64 0.25,1.44 -0.09,1.74 z m -8.18,-13 c -2,0.07 -4.28,2.5 -5,2.83 -0.72,0.33 -0.51,0.58 0,0.41 1,-0.36 2.39,-1.86 4.33,-2.56 1.53,-0.56 1.43,0.7 2,0.63 0.2,0 -0.19,-1.32 -1.33,-1.28 z m 0.45,1.94 c -0.17,0 0.17,0.88 -0.69,0.94 -1.86,0.11 -3.34,1.87 -4.47,2.4 a 5.9,5.9 0 0 1 -1.54,0.57 c -0.15,0 -0.09,0.23 0,0.25 4.75,0.63 6.57,0.46 6.61,0.29 0.08,-0.33 -0.27,-0.49 -0.19,-0.7 a 4.45,4.45 0 0 0 0.06,-2.22 c -0.09,-0.32 0.7,-0.11 0.7,-0.55 0.03,-0.2 -0.21,-1.02 -0.48,-0.95 z m -0.73,3.75 c -0.09,0.37 -2.21,0.2 -3.37,0.1 -0.27,0 -0.73,-0.07 0.15,-0.59 a 8.47,8.47 0 0 1 2.88,-1.32 0.29,0.29 0 0 1 0.35,0.24 3.85,3.85 0 0 1 -0.01,1.6 z m 6.19,6.75 a 9,9 0 0 0 -2.37,1 c -0.32,0.2 -1.8,1.11 -1.7,-0.33 0,-0.51 0.37,-1.77 0.36,-2.12 0,-0.52 -0.43,-0.31 -0.44,0 a 14,14 0 0 1 -0.31,2.23 1,1 0 0 0 1.49,1.11 11.7,11.7 0 0 1 2.92,-1.38 c 0.26,-0.09 0.3,-0.47 0.05,-0.48 z m -27.48,5.22 c -0.28,-0.11 -0.21,0.47 -0.59,0.41 -0.38,-0.06 -0.08,-0.53 -0.72,-1.22 -0.33,-0.34 -1.13,-0.48 -1.73,-1.44 -1,-1.51 -0.14,-4.88 1.25,-4.4 0.76,0.27 0.63,2.06 0.4,3.27 -0.14,0.74 1,1.11 1.12,0.85 0.18,-0.44 -0.42,-0.39 -0.56,-0.79 -0.22,-0.62 1.42,-3.12 -0.72,-3.79 -1.55,-0.52 -2.58,1.44 -2.39,3.61 a 3.19,3.19 0 0 0 2.07,2.85 c 0.94,0.34 0.23,1.63 1.49,1.64 0.56,0 0.68,-0.88 0.38,-0.99 z m 12.46,-40.57 a 0.15,0.15 0 0 0 0.19,0 l 2.64,-3.33 a 0.18,0.18 0 0 0 -0.07,-0.2600003 l -0.45,-0.18 a 0.2,0.2 0 0 0 -0.19,0.05 l -2.63,3.3000003 a 0.16,0.16 0 0 0 0.07,0.26 z m -4.89,-1.36 0.46,0.09 a 0.15,0.15 0 0 0 0.18,-0.1 l 1.55,-3.8100003 a 0.17,0.17 0 0 0 -0.12,-0.23 l -0.51,-0.11 a 0.09,0.09 0 0 0 -0.11,0.06 c -0.2,0.49 -1.27,3.1500003 -1.57,3.8800003 a 0.16,0.16 0 0 0 0.12,0.22 z m -5.43,-0.51 h 0.46 a 0.16,0.16 0 0 0 0.17,-0.15 l 0.38,-4.0500003 a 0.16,0.16 0 0 0 -0.16,-0.18 h -0.47 a 0.16,0.16 0 0 0 -0.16,0.15 l -0.41,4.0300003 a 0.16,0.16 0 0 0 0.19,0.2 z m -5.28,0.4 0.45,-0.07 a 0.17,0.17 0 0 0 0.14,-0.2 l -0.77,-4.0000003 a 0.16,0.16 0 0 0 -0.19,-0.13 l -0.46,0.07 a 0.16,0.16 0 0 0 -0.13,0.19 l 0.77,4.0000003 a 0.18,0.18 0 0 0 0.19,0.12 z m -5.39,1.23 a 0.16,0.16 0 0 0 0.2,0.08 l 0.43,-0.15 a 0.17,0.17 0 0 0 0.1,-0.23 l -1.83,-3.6700003 a 0.16,0.16 0 0 0 -0.2,-0.08 l -0.44,0.16 a 0.16,0.16 0 0 0 -0.09,0.23 z m -5,2.33 a 0.15,0.15 0 0 0 0.2,0 l 0.41,-0.22 a 0.17,0.17 0 0 0 0,-0.26 l -2.73,-3.11 a 0.17,0.17 0 0 0 -0.21,0 l -0.4,0.24 a 0.17,0.17 0 0 0 0,0.26 z m -4.72,3.29 a 0.17,0.17 0 0 0 0.19,0 l 0.37,-0.31 a 0.16,0.16 0 0 0 0,-0.26 l -3.45,-2.4 a 0.17,0.17 0 0 0 -0.21,0 l -0.36,0.32 a 0.16,0.16 0 0 0 0,0.25 z m -4.09,4.2 a 0.15,0.15 0 0 0 0.19,-0.05 c 0.1,-0.12 0.2,-0.25 0.31,-0.37 a 0.16,0.16 0 0 0 -0.07,-0.26 l -4,-1.55 a 0.18,0.18 0 0 0 -0.19,0.05 l -0.3,0.39 a 0.16,0.16 0 0 0 0.08,0.25 z m -7.51,4.35 4.26,0.59 a 0.16,0.16 0 0 0 0.17,-0.08 l 0.24,-0.44 a 0.17,0.17 0 0 0 -0.13,-0.24 l -4.28,-0.63 a 0.15,0.15 0 0 0 -0.17,0.09 l -0.21,0.43 a 0.17,0.17 0 0 0 0.12,0.28 z m -2.3300002,6.45 4.3500002,-0.41 a 0.17,0.17 0 0 0 0.14,-0.12 l 0.15,-0.47 a 0.17,0.17 0 0 0 -0.17,-0.22 l -4.3400002,0.42 a 0.17,0.17 0 0 0 -0.15,0.12 l -0.12,0.48 a 0.16,0.16 0 0 0 0.14,0.2 z m 3.3000002,5.17 0.06,-0.51 a 0.17,0.17 0 0 0 -0.22,-0.18 l -4.2300002,1.48 a 0.15,0.15 0 0 0 -0.11,0.14 v 0.5 a 0.16,0.16 0 0 0 0.22,0.16 l 4.2000002,-1.46 a 0.16,0.16 0 0 0 0.08,-0.13 z m -0.11,5.78 v -0.53 a 0.17,0.17 0 0 0 -0.26,-0.13 l -3.8300002,2.52 a 0.17,0.17 0 0 0 -0.07,0.16 c 0,0.17 0,0.34 0.07,0.51 a 0.16,0.16 0 0 0 0.25,0.11 l 3.8000002,-2.5 a 0.13,0.13 0 0 0 0.04,-0.14 z m 0.94,5.8 c 0,-0.17 -0.09,-0.35 -0.13,-0.53 a 0.16,0.16 0 0 0 -0.28,-0.07 l -3.1000002,3.4 a 0.18,0.18 0 0 0 0,0.17 l 0.18,0.49 a 0.17,0.17 0 0 0 0.28,0.06 l 3.0500002,-3.39 a 0.18,0.18 0 0 0 0,-0.13 z m 1.6,5.13 -2.2,4.19 a 0.15,0.15 0 0 0 0,0.16 c 0.09,0.15 0.18,0.31 0.28,0.46 a 0.17,0.17 0 0 0 0.29,0 l 2.17,-4.14 a 0.14,0.14 0 0 0 0,-0.15 l -0.25,-0.51 a 0.16,0.16 0 0 0 -0.27,-0.04 z m 3.09,4.7 a 0.17,0.17 0 0 0 -0.29,0.06 l -1.18,4.86 a 0.17,0.17 0 0 0 0,0.15 l 0.37,0.42 a 0.16,0.16 0 0 0 0.28,-0.07 l 1.16,-4.8 a 0.17,0.17 0 0 0 0,-0.14 z"
     id="path18" />
</svg>
