<svg xmlns="http://www.w3.org/2000/svg" viewBox="0 0 500 500.001">
  <path d="M264.171,163.1c-4.979-1.567-17.261-4.536-24.034,1.736-4.148,3.849-6.72,10.632-5.988,15.786a9.735,9.735,0,0,0,5.307,7.589,25.378,25.378,0,0,0,10.972,2.259c5.609,0,11.41-1.5,14.958-4.779,3.587-3.321,6.72-9.877,5.454-15.49A9.417,9.417,0,0,0,264.171,163.1Zm-2.736,18.322c-3.775,3.5-13.918,4.326-19.379,1.59a3.835,3.835,0,0,1-2.151-3.213c-.471-3.321,1.4-8.123,4.183-10.694,1.771-1.64,4.569-2.282,7.714-2.282a37.033,37.033,0,0,1,10.626,1.816,3.651,3.651,0,0,1,2.742,2.839C265.828,174.391,264.114,178.943,261.435,181.423ZM427.18,73.621l-.128.12.122-.12A248.294,248.294,0,0,0,250,0C137.217,0,37.951,75.959,8.616,184.721A250.531,250.531,0,0,0,0,250C0,387.85,112.15,500,250,500a251.024,251.024,0,0,0,64.181-8.316C423.593,462.7,500,363.318,500,250A248.423,248.423,0,0,0,427.18,73.621ZM250,5.812A242.525,242.525,0,0,1,423.011,77.677a7.227,7.227,0,0,1,1.535,5.854c-.755,3.821-4.87,7.652-11.908,11.086-22.28,10.847-35,.63-35.528.187l-.278-.227a200.025,200.025,0,0,0-159.5-42.407c-8.969,2.407-15.695,8.458-19.362,30.124-1.448,8.548.022,15.133,4.371,19.571,7.157,7.3,19.3,5.586,19.923,5.5a145.9,145.9,0,0,1,67.019,2.651c9.173,2.452,20.866,9.139,25.458,17.165a13.116,13.116,0,0,1,1.561,10.3c-3.02,10.967-20.627,19.413-39.7,14.287a107.611,107.611,0,0,0-27.382-3.5c-15.184.454-25.322,10.9-28.546,29.414-1.192,6.834.125,12.556,3.917,17.006,4.9,5.745,13.85,9.127,24.827,8.81a22.746,22.746,0,0,1,15.9,6.323,21.949,21.949,0,0,1,6.567,15.74,21.684,21.684,0,0,1-20.508,21.408,27.435,27.435,0,0,0-49.457,8.409,27.788,27.788,0,0,0,3.111,21.371c4.609,7.748,6.215,15.593,4.3,20.985-1.352,3.8-4.479,6.624-9.287,8.384-10.449,3.831-24.635,5.619-32.774-7.555a95.4,95.4,0,0,1-10.013-23.96c-5.535-20.717-23.869-35.322-39.314-31.377a18.77,18.77,0,0,0-11.692,9.206c-5.7,9.8-5.416,25.049-2.736,35.034a151.559,151.559,0,0,0,32.36,61.6c.062.074,6.034,7.771,4.07,14.753-1.147,4.075-4.905,7.328-11.171,9.655-19.7,7.317-25.441,3.826-29.454-.159a194.185,194.185,0,0,1-41.533-154.8c.142-.829,3.264-20.514-20.412-36.476a49.127,49.127,0,0,0-5.679-3.328c-.034-.018-.074-.042-.107-.058a30.475,30.475,0,0,0-5.194-2.015c-.043-.012-.085-.029-.128-.041a19.328,19.328,0,0,0-4.621-.709c-.09,0-.184-.016-.275-.017a14.077,14.077,0,0,0-3.962.521c-.1.026-.207.011-.3.04C48.917,75.465,143.256,5.812,250,5.812Zm0,488.376C115.357,494.188,5.812,384.643,5.812,250a244.7,244.7,0,0,1,8.373-63.625,7.332,7.332,0,0,1,4.353-4.308,8.485,8.485,0,0,1,3.071-.393c3.378.142,7.637,1.885,12.511,5.172,20.587,13.89,18.05,29.987,17.925,30.7A199.947,199.947,0,0,0,95.008,377.2a20.065,20.065,0,0,0,15.3,6.318c5.177,0,11.75-1.368,20.474-4.609,8.123-3.02,13.09-7.583,14.758-13.566,2.742-9.854-4.8-19.5-5.205-20a145.864,145.864,0,0,1-31.207-59.362c-2.464-9.173-2.52-22.642,2.134-30.634a13.129,13.129,0,0,1,8.134-6.5c10.989-2.929,27.132,8.18,32.23,27.241a101.323,101.323,0,0,0,10.654,25.469c7.98,12.919,22.092,16.46,39.75,10.013,6.511-2.385,10.807-6.386,12.766-11.9,2.526-7.107.783-16.552-4.779-25.906a22,22,0,0,1,7.867-30.487,21.691,21.691,0,0,1,28.795,7.06,27.433,27.433,0,0,0,32.008,38.622,27.767,27.767,0,0,0,16.955-13.379c4.405-7.861,10.4-13.175,16.03-14.213,3.985-.721,7.975.568,11.909,3.848,8.536,7.141,17.175,18.527,9.831,32.162a95.16,95.16,0,0,1-15.74,20.656c-15.173,15.149-18.681,38.393-7.516,49.729a18.73,18.73,0,0,0,13.822,5.523c11.5-.159,24.4-7.828,31.707-15.145a151.525,151.525,0,0,0,37.168-58.827c.034-.092,3.712-9.111,10.739-10.9,4.11-1.039,8.81.59,13.947,4.847,16.177,13.391,16.035,20.117,14.593,25.583a194.127,194.127,0,0,1-113.3,113.377c-.79.3-19.385,7.464-21.383,35.908a48.223,48.223,0,0,0-.028,6.768c.045.675.2,1.221.287,1.858a29.815,29.815,0,0,0,.627,3.828,19.028,19.028,0,0,0,.718,1.838,18.576,18.576,0,0,0,1.138,2.747,13.8,13.8,0,0,0,1.184,1.542,14.1,14.1,0,0,0,1.359,1.768A245.754,245.754,0,0,1,250,494.188Zm62.83-8.156a7.337,7.337,0,0,1-5.932-1.618c-2.934-2.577-4.194-8.072-3.65-15.877,1.732-24.736,16.944-30.623,17.625-30.873A199.972,199.972,0,0,0,437.664,320.621c2.39-8.974.517-17.818-16.416-31.832-5.221-4.325-10.3-6.5-15.144-6.5a16.028,16.028,0,0,0-3.984.5c-9.9,2.549-14.48,13.9-14.713,14.509a145.9,145.9,0,0,1-35.806,56.71c-6.7,6.7-18.294,13.464-27.535,13.464H324a13.13,13.13,0,0,1-9.695-3.786c-7.986-8.111-6.482-27.6,7.475-41.538a101.317,101.317,0,0,0,16.728-21.962c7.2-13.372,3.224-27.376-11.2-39.432-5.307-4.445-10.887-6.164-16.688-5.1-7.419,1.368-14.724,7.595-20.048,17.091a22,22,0,0,1-30.334,8.43,21.746,21.746,0,0,1-8.457-28.325,27.62,27.62,0,0,0-2.447-55.173c-8.935.25-16.609-2.412-20.321-6.766-2.616-3.076-3.5-7.191-2.622-12.238,1.913-10.966,7.453-24.14,22.938-24.6a101,101,0,0,1,25.752,3.3c20.707,5.556,42.6-3.009,46.829-18.352a18.733,18.733,0,0,0-2.123-14.724c-5.631-9.842-18.981-17.216-28.971-19.89a151.418,151.418,0,0,0-69.528-2.775c-.108.012-9.746,1.346-14.809-3.848-2.964-3.037-3.894-7.919-2.776-14.515,3.5-20.7,9.4-23.942,14.854-25.423A194.145,194.145,0,0,1,373.4,99.283c1.629,1.345,16.637,12.817,41.783.556,8.622-4.2,13.651-9.144,14.962-14.7A242.49,242.49,0,0,1,494.188,250C494.188,360.683,419.557,457.758,312.833,486.032ZM441.019,105.8c-5.761-6.959-11.058-7.561-20.985-2.372-4.6,2.4-9.889,6.777-10.921,11.857a8.587,8.587,0,0,0,1.913,7.374c3.661,4.427,7.322,7.941,14.253,7.941,3.383,0,7.543-.84,12.862-2.816a10.162,10.162,0,0,0,6.289-7.175A17.287,17.287,0,0,0,441.019,105.8Zm-2.208,13.3a4.382,4.382,0,0,1-2.691,3.23c-13.634,5.069-16.711,1.34-20.61-3.377a2.81,2.81,0,0,1-.7-2.515c.5-2.464,3.752-5.694,7.912-7.862,3.758-1.964,6.238-2.8,8.1-2.8,2.47,0,3.86,1.47,5.716,3.718A11.556,11.556,0,0,1,438.811,119.1ZM308.689,307.946a9.822,9.822,0,0,0,2.929.454,9.575,9.575,0,0,0,6.556-2.685c3.837-3.519,12.545-12.686,10.507-21.683-1.249-5.512-5.841-11.131-10.671-13.072a9.729,9.729,0,0,0-9.224.8c-6.5,4.286-12.63,15.581-10.785,23.715C299.085,300.243,303.2,306.232,308.689,307.946Zm3.3-31.338a3.6,3.6,0,0,1,2.043-.642,4.858,4.858,0,0,1,1.811.386c3.065,1.232,6.346,5.336,7.175,8.963,1.112,4.927-3.8,11.557-8.77,16.12a3.642,3.642,0,0,1-3.832.959c-2.843-.885-5.936-4.648-6.748-8.207C302.531,289.175,306.89,279.974,311.987,276.608Zm30.067-131.376c-2.776-2.571-7.061-5.9-11.824-5-3.661.681-6.669,3.524-9.207,8.7-3.57,7.288-2.213,15.666,3.384,20.848a15.568,15.568,0,0,0,10.381,4.173,12.712,12.712,0,0,0,1.913-.142,11.325,11.325,0,0,0,8.276-5.648C351.8,156.351,346.578,149.421,342.054,145.232Zm-2.106,20.026a5.5,5.5,0,0,1-4.115,2.8,9.318,9.318,0,0,1-7.476-2.542c-3.757-3.48-4.586-8.986-2.111-14.032,1.129-2.3,2.923-5.137,5.046-5.534a2.845,2.845,0,0,1,.551-.051c1.6,0,3.66,1.186,6.26,3.6C342.508,153.57,344.347,157.629,339.948,165.258Zm-35,209.1c1.237-3.508.284-7.538-2.929-12.318-4.524-6.743-12.459-9.763-19.742-7.5a15.237,15.237,0,0,0-9.633,8.628,11.341,11.341,0,0,0,.75,10c4.569,7.918,9.945,10.052,14.764,10.052a22.229,22.229,0,0,0,6.55-1.118C298.319,380.982,303.314,378.967,304.943,374.358Zm-5.483-1.936c-.568,1.606-2.685,2.958-6.471,4.126-5.75,1.771-10.172,1.34-14.571-6.289a5.5,5.5,0,0,1-.369-4.966,9.443,9.443,0,0,1,5.937-5.2,11.042,11.042,0,0,1,3.236-.494,12.1,12.1,0,0,1,9.967,5.677C298.625,367.41,300.181,370.384,299.46,372.422Zm-19.691,80.7c-8.429,1.425-15.11,3.865-17.994,20.922a10.153,10.153,0,0,0,3.071,9.025,17.173,17.173,0,0,0,11.875,4.672,15.751,15.751,0,0,0,2.65-.216c8.906-1.5,12.074-5.79,12.556-16.988.216-5.189-.931-11.961-4.819-15.389A8.647,8.647,0,0,0,279.769,453.121Zm-1.362,28.67a11.573,11.573,0,0,1-9.451-2.832,4.365,4.365,0,0,1-1.448-3.945v-.006c2.424-14.332,7.192-15.138,13.226-16.154a4.111,4.111,0,0,1,.675-.062,2.662,2.662,0,0,1,1.851.714c1.884,1.658,3.059,6.091,2.855,10.78C285.7,480.151,283.447,480.94,278.407,481.791ZM38.048,176.037c3.388,2.151,8,4.064,12.181,4.064a11.212,11.212,0,0,0,3.559-.54,8.6,8.6,0,0,0,5.426-5.352c2.98-8.009,4.194-15.014-9.127-26.037v-.006a10.2,10.2,0,0,0-9.36-1.85,17.306,17.306,0,0,0-11.114,10.353C26.462,165.133,28.591,170.02,38.048,176.037ZM35.062,158.7a11.555,11.555,0,0,1,7.169-6.766,5.9,5.9,0,0,1,1.521-.21,4,4,0,0,1,2.634.93c11.2,9.264,9.513,13.8,7.379,19.532a2.812,2.812,0,0,1-1.828,1.868c-2.389.8-6.812-.409-10.767-2.918C32.837,165.831,33.274,163.492,35.062,158.7Zm89.854,80.4c.659,0,1.339-.028,2.049-.073,8.1-.557,14.679-5.921,16.365-13.351a15.247,15.247,0,0,0-2.663-12.664,11.321,11.321,0,0,0-9.025-4.348c-13.634,0-17.028,7.992-18.4,14-.84,3.69-1.584,9.026,1.589,12.733C116.958,237.879,120.268,239.1,124.916,239.1Zm-6-15.144c1.334-5.852,3.928-9.479,12.731-9.479a5.491,5.491,0,0,1,4.485,2.157,9.485,9.485,0,0,1,1.538,7.753c-1.135,4.984-5.489,8.458-11.1,8.838-2.577.17-5.909.034-7.317-1.6C118.144,230.33,118.037,227.82,118.911,223.955Zm51.563,47.9a9.429,9.429,0,0,0-2.816,9.326c1.129,5.086,4.717,17.21,13.532,19.946a18.143,18.143,0,0,0,5.347.761,18.977,18.977,0,0,0,11.3-3.463,9.725,9.725,0,0,0,3.928-8.389v-.006c-.466-7.776-7.181-18.732-15.15-21.195C181.939,267.378,174.7,267.951,170.474,271.851Zm25.491,18.522a3.839,3.839,0,0,1-1.708,3.473c-2.645,2.066-7.731,2.844-11.347,1.726-4.825-1.5-8.111-9.07-9.575-15.655a3.637,3.637,0,0,1,1.078-3.792c1.527-1.408,4.32-2.225,7.055-2.225a11.679,11.679,0,0,1,3.434.483C189.806,275.9,195.6,284.271,195.965,290.373ZM154.5,382.622c-3.054-1.425-10.739-4.507-16-2.276a15.239,15.239,0,0,0-8.072,20.008c2.4,5.648,7.731,8.8,14.457,8.8a24.32,24.32,0,0,0,5.03-.545c9.933-2.1,15.342-3.86,17.329-7.674,1.47-2.821.5-5.836-.363-7.856C164.576,387.668,156.817,383.712,154.5,382.622Zm-5.79,20.3c-2.333.494-10.2,1.607-12.936-4.842a9.438,9.438,0,0,1,5-12.385h.006a5.291,5.291,0,0,1,2-.312,23.389,23.389,0,0,1,9.264,2.509c4.643,2.168,8.543,5.239,9.491,7.458.425,1,.862,2.311.556,2.9C161,400.327,152.071,402.211,148.705,402.92ZM422.094,246.206c-3.179.136-5.307,2.491-6.624,4.246-3.531,4.688-3.082,13.39-2.861,15.944.29,3.366,1.465,11.568,6.028,15a15.144,15.144,0,0,0,9.139,3.071,15.483,15.483,0,0,0,2.168-.153A15.151,15.151,0,0,0,440,278.379c4.5-5.989,3.485-14.231-2.594-21C430.631,249.827,426.584,245.848,422.094,246.206Zm13.265,28.676a9.44,9.44,0,0,1-13.225,1.873c-1.436-1.084-3.219-4.944-3.735-10.864-.443-5.1.261-10.013,1.714-11.943.653-.868,1.567-1.907,2.237-1.935h.05c2.379,0,8.4,6.714,10.683,9.252C434.684,263.047,439.571,269.285,435.359,274.882Zm-267.7-168.413a9.749,9.749,0,0,0,1.226.074c5.586,0,12.057-4.2,14.009-5.569,2.77-1.935,9.286-7.05,9.979-12.72a15.259,15.259,0,0,0-13.3-17c-7.64-.891-14.009,3.974-16.886,12.749-3.151,9.65-4.331,15.212-2.021,18.84C162.373,105.538,165.473,106.2,167.658,106.469Zm.556-20.656c.7-2.151,3.4-8.855,9.565-8.855a9.149,9.149,0,0,1,1.09.068,9.449,9.449,0,0,1,8.236,10.524c-.222,1.783-2.674,5.256-7.544,8.662-4.194,2.935-8.764,4.723-11.2,4.49-1.073-.131-2.435-.409-2.793-.971C164.309,97.75,167.147,89.077,168.214,85.813Z" fill="#fff"/>
</svg>
