<svg id="MP-Logo-farbig" xmlns="http://www.w3.org/2000/svg" viewBox="0 0 313.99 141.73"><defs><style>.cls-1{fill:#006c66;}.cls-2{fill:#00b1ea;}.cls-3{fill:#c6d325;}</style></defs><path class="cls-1" d="M143.7,50.62l-3.23,13.85a1.41,1.41,0,0,1-1.31,1.21h-.45a1.42,1.42,0,0,1-1.32-1.21l-3.23-13.85s0-.12,0-.16a.71.71,0,0,1,.59-.66l.3-.1a.69.69,0,0,1,.87.52l2.41,10.7c.23,1.06.59,3.15.59,3.15H139s.35-2.09.58-3.15L142,50.22a.69.69,0,0,1,.87-.52l.31.1a.71.71,0,0,1,.58.66S143.7,50.57,143.7,50.62Zm6.86,10.18H146.2v1.86a1.34,1.34,0,0,0,1.53,1.44h2.43a.65.65,0,0,1,.7.66V65a.65.65,0,0,1-.7.66H147A2.68,2.68,0,0,1,144.46,63V57.1a2.67,2.67,0,0,1,2.71-2.59h2.05a2.68,2.68,0,0,1,2.7,2.59v2.29A1.27,1.27,0,0,1,150.56,60.8Zm-.38-3.44a1.27,1.27,0,0,0-1.27-1.27h-1.44a1.27,1.27,0,0,0-1.27,1.27v2h4Zm9.92-1.27h-2.57a1.41,1.41,0,0,0-1.41,1.51V65a.71.71,0,0,1-.71.71h-.33a.69.69,0,0,1-.7-.71V55.1a.57.57,0,0,1,.63-.59h.31a.58.58,0,0,1,.45.33l.21.42a.44.44,0,0,0,.42.29c.59,0,1.13-1,2.45-1h1.25a.66.66,0,0,1,.71.66v.26A.66.66,0,0,1,160.1,56.09ZM167,70.86h-2.88a.65.65,0,0,1-.7-.66v-.26a.65.65,0,0,1,.7-.66h2.19a1.37,1.37,0,0,0,1.56-1.48V65.16c0-.22-.07-.45-.29-.45-.54,0-1.06,1-2.47,1h-.35a2.67,2.67,0,0,1-2.62-2.67v-6a2.61,2.61,0,0,1,2.62-2.68h.35c1.32,0,1.89,1.11,2.47,1.11a.43.43,0,0,0,.36-.24l.3-.54a.6.6,0,0,1,.5-.26h.33a.54.54,0,0,1,.54.56V68.22A2.64,2.64,0,0,1,167,70.86Zm.87-13.29a1.48,1.48,0,0,0-1.49-1.48h-1a1.47,1.47,0,0,0-1.46,1.48v5.07a1.47,1.47,0,0,0,1.46,1.46h1a1.47,1.47,0,0,0,1.49-1.46Zm6.26,8.11h-.32a.7.7,0,0,1-.71-.71V50.46a.7.7,0,0,1,.71-.71h.32a.71.71,0,0,1,.71.71V65A.71.71,0,0,1,174.14,65.68Zm10.3-4.88h-4.36v1.86a1.35,1.35,0,0,0,1.53,1.44H184a.66.66,0,0,1,.71.66V65a.66.66,0,0,1-.71.66h-3.13A2.68,2.68,0,0,1,178.34,63V57.1a2.67,2.67,0,0,1,2.71-2.59h2a2.69,2.69,0,0,1,2.71,2.59v2.29A1.28,1.28,0,0,1,184.44,60.8Zm-.38-3.44a1.27,1.27,0,0,0-1.27-1.27h-1.43a1.27,1.27,0,0,0-1.28,1.27v2h4Zm5.85-4.9h-.33a.7.7,0,0,1-.71-.71V50.46a.7.7,0,0,1,.71-.71h.33a.7.7,0,0,1,.7.71v1.29A.7.7,0,0,1,189.91,52.46Zm0,13.22h-.33a.7.7,0,0,1-.71-.71V55.22a.7.7,0,0,1,.71-.71h.33a.7.7,0,0,1,.7.71V65A.7.7,0,0,1,189.91,65.68Zm10,0h-3.23A2.65,2.65,0,0,1,194.1,63V57.12a2.67,2.67,0,0,1,2.69-2.61h2.87a.66.66,0,0,1,.71.66v.26a.66.66,0,0,1-.71.66H197.4a1.38,1.38,0,0,0-1.55,1.53v5c0,1.1.7,1.46,1.57,1.46h2.5a.66.66,0,0,1,.71.66V65A.66.66,0,0,1,199.92,65.68Zm9.38,0H209a.7.7,0,0,1-.71-.71v-7.4a1.48,1.48,0,0,0-1.48-1.48h-1a1.48,1.48,0,0,0-1.49,1.48V65a.71.71,0,0,1-.71.71h-.33a.69.69,0,0,1-.7-.71V50.46a.69.69,0,0,1,.7-.71h.33a.71.71,0,0,1,.71.71v4.69c0,.23.07.4.28.4.59,0,1.16-1.11,2.48-1.11h.35A2.6,2.6,0,0,1,210,57.12V65A.7.7,0,0,1,209.3,65.68ZM219,60.8h-4.35v1.86a1.34,1.34,0,0,0,1.52,1.44h2.43a.66.66,0,0,1,.71.66V65a.66.66,0,0,1-.71.66h-3.13A2.68,2.68,0,0,1,212.88,63V57.1a2.67,2.67,0,0,1,2.71-2.59h2a2.68,2.68,0,0,1,2.71,2.59v2.29A1.28,1.28,0,0,1,219,60.8Zm-.37-3.44a1.27,1.27,0,0,0-1.28-1.27H215.9a1.26,1.26,0,0,0-1.27,1.27v2h4Zm10.95,8.32h-.33a.69.69,0,0,1-.7-.71V57.6A1.47,1.47,0,0,0,227,56.09h-1a1.46,1.46,0,0,0-1.48,1.51V65a.72.72,0,0,1-.71.71h-.33a.7.7,0,0,1-.71-.71V55.1a.57.57,0,0,1,.64-.59h.3a.56.56,0,0,1,.45.33l.21.42a.45.45,0,0,0,.43.29c.59,0,1.15-1.11,2.47-1.11h.35a2.61,2.61,0,0,1,2.62,2.64V65A.71.71,0,0,1,229.56,65.68Zm10.51,0h-.35a.63.63,0,0,1-.52-.33l-.21-.41a.4.4,0,0,0-.38-.23c-.59,0-1.08,1-2.5,1h-.35a2.66,2.66,0,0,1-2.61-2.67v-6a2.6,2.6,0,0,1,2.61-2.68h.35c1.32,0,1.89,1.11,2.48,1.11.21,0,.28-.17.28-.4V50.46a.71.71,0,0,1,.71-.71h.33a.69.69,0,0,1,.7.71V65.09A.57.57,0,0,1,240.07,65.68Zm-1.2-8.11a1.48,1.48,0,0,0-1.48-1.48h-1a1.48,1.48,0,0,0-1.48,1.48v5a1.48,1.48,0,0,0,1.48,1.49h1a1.48,1.48,0,0,0,1.48-1.49Zm10.72,3.23h-4.36v1.86a1.35,1.35,0,0,0,1.53,1.44h2.43a.66.66,0,0,1,.71.66V65a.66.66,0,0,1-.71.66h-3.13A2.68,2.68,0,0,1,243.49,63V57.1a2.67,2.67,0,0,1,2.71-2.59h2.05A2.69,2.69,0,0,1,251,57.1v2.29A1.28,1.28,0,0,1,249.59,60.8Zm-.38-3.44a1.27,1.27,0,0,0-1.27-1.27h-1.43a1.27,1.27,0,0,0-1.28,1.27v2h4ZM143.28,89.47l-.36.31a.7.7,0,0,1-1-.15l-5.49-6.73v6.24a.71.71,0,0,1-.71.71h-.33a.69.69,0,0,1-.7-.71V74.63a.69.69,0,0,1,.7-.71h.33a.71.71,0,0,1,.71.71v6.19l5-6.71a.65.65,0,0,1,1-.12l.26.21a.67.67,0,0,1,.14,1l-5.06,6.66,5.56,6.74a.69.69,0,0,1,.14.43A.64.64,0,0,1,143.28,89.47Zm8.74.38h-.35a.63.63,0,0,1-.52-.33l-.21-.4a.41.41,0,0,0-.38-.24c-.59,0-1.08,1-2.5,1h-.35a2.67,2.67,0,0,1-2.62-2.67V79.39a.7.7,0,0,1,.71-.71h.33a.71.71,0,0,1,.71.71v7.39a1.48,1.48,0,0,0,1.48,1.49h1a1.48,1.48,0,0,0,1.49-1.49V79.39a.69.69,0,0,1,.7-.71h.33a.71.71,0,0,1,.71.71v9.87A.57.57,0,0,1,152,89.85Zm5.07,0h-.33a.7.7,0,0,1-.71-.71V74.63a.7.7,0,0,1,.71-.71h.33a.71.71,0,0,1,.7.71V89.14A.71.71,0,0,1,157.09,89.85Zm9.58-9.59h-2.45v8.88a.71.71,0,0,1-.7.71h-.33a.7.7,0,0,1-.71-.71V80.26h-1.34a.66.66,0,0,1-.71-.66v-.26a.66.66,0,0,1,.71-.66h1.34V74.63a.7.7,0,0,1,.71-.71h.33a.71.71,0,0,1,.7.71v4.05h2.45a.65.65,0,0,1,.71.66v.26A.65.65,0,0,1,166.67,80.26Zm9.08,9.59h-.36a.66.66,0,0,1-.52-.33l-.21-.4a.39.39,0,0,0-.38-.24c-.58,0-1.08,1-2.49,1h-.36a2.67,2.67,0,0,1-2.61-2.67V79.39a.7.7,0,0,1,.71-.71h.33a.71.71,0,0,1,.7.71v7.39a1.48,1.48,0,0,0,1.49,1.49h1a1.47,1.47,0,0,0,1.48-1.49V79.39a.7.7,0,0,1,.71-.71h.33a.71.71,0,0,1,.71.71v9.87A.57.57,0,0,1,175.75,89.85Zm9.14-9.59h-2.57a1.41,1.41,0,0,0-1.41,1.51v7.37a.71.71,0,0,1-.71.71h-.33a.7.7,0,0,1-.71-.71V79.27a.57.57,0,0,1,.64-.59h.31a.56.56,0,0,1,.44.33l.22.42a.44.44,0,0,0,.42.29c.59,0,1.13-1,2.45-1h1.25a.65.65,0,0,1,.7.66v.26A.65.65,0,0,1,184.89,80.26Zm6.9,9.66h-.35c-1.41,0-1.93-1-2.47-1-.22,0-.29.24-.29.45v5a.71.71,0,0,1-.7.71h-.33a.7.7,0,0,1-.71-.71V79.24a.54.54,0,0,1,.54-.56h.33a.61.61,0,0,1,.5.26l.3.54a.43.43,0,0,0,.36.24c.58,0,1.15-1.11,2.47-1.11h.35a2.61,2.61,0,0,1,2.62,2.69v6A2.67,2.67,0,0,1,191.79,89.92Zm.87-8.18a1.47,1.47,0,0,0-1.46-1.48h-1a1.48,1.48,0,0,0-1.49,1.48v5.07a1.47,1.47,0,0,0,1.49,1.46h1a1.47,1.47,0,0,0,1.46-1.46Zm8.94,8.11h-4a.65.65,0,0,1-.7-.66v-.26a.65.65,0,0,1,.7-.66h3.63c.8,0,1-.83,1-1.35V86a1,1,0,0,0-1-1h-2a2.3,2.3,0,0,1-2.31-2.31V81.13a2.68,2.68,0,0,1,2.69-2.45h3a.65.65,0,0,1,.7.66v.26a.65.65,0,0,1-.7.66H200a1.19,1.19,0,0,0-1.35,1.2v.87a1.23,1.23,0,0,0,1.3,1.18h1.93A2,2,0,0,1,204,85.63v1.58A2.37,2.37,0,0,1,201.6,89.85Zm13.45-10.18-5.44,14.89a.62.62,0,0,1-1,.35l-.26-.14a.6.6,0,0,1-.3-.47.93.93,0,0,1,0-.33l1.51-4.12c-.14,0-.26-.26-.31-.43l-3.55-9.75a.69.69,0,0,1-.05-.24.64.64,0,0,1,.45-.61l.37-.14a.65.65,0,0,1,.88.4l3,8.48,3-8.48a.65.65,0,0,1,.84-.42l.36.16a.68.68,0,0,1,.44.61A1,1,0,0,1,215.05,79.67Zm7.44,10.18h-3.22a2.65,2.65,0,0,1-2.59-2.69V81.3a2.67,2.67,0,0,1,2.68-2.62h2.88a.66.66,0,0,1,.7.66v.26a.66.66,0,0,1-.7.66H220a1.38,1.38,0,0,0-1.55,1.53v5c0,1.1.7,1.46,1.58,1.46h2.49a.66.66,0,0,1,.71.66v.26A.66.66,0,0,1,222.49,89.85Zm9.38,0h-.33a.69.69,0,0,1-.7-.71v-7.4a1.48,1.48,0,0,0-1.49-1.48h-1a1.47,1.47,0,0,0-1.48,1.48v7.4a.72.72,0,0,1-.71.71h-.33a.7.7,0,0,1-.71-.71V74.63a.7.7,0,0,1,.71-.71h.33a.72.72,0,0,1,.71.71v4.69c0,.23.07.4.28.4.59,0,1.15-1.11,2.47-1.11H230a2.61,2.61,0,0,1,2.62,2.69v7.84A.71.71,0,0,1,231.87,89.85Zm8.44,0h-2.24a2.63,2.63,0,0,1-2.61-2.64V81.27a2.66,2.66,0,0,1,2.7-2.59h2.05a2.67,2.67,0,0,1,2.71,2.59v5.94A2.63,2.63,0,0,1,240.31,89.85Zm.87-8.3a1.29,1.29,0,0,0-1.27-1.29h-1.42a1.29,1.29,0,0,0-1.29,1.29V87a1.27,1.27,0,0,0,1.27,1.3h1.41a1.28,1.28,0,0,0,1.3-1.3Zm6.27,8.3h-.33a.7.7,0,0,1-.71-.71V74.63a.7.7,0,0,1,.71-.71h.33a.71.71,0,0,1,.7.71V89.14A.71.71,0,0,1,247.45,89.85Zm9.05,0h-2.24a2.64,2.64,0,0,1-2.62-2.64V81.27a2.67,2.67,0,0,1,2.71-2.59h2a2.67,2.67,0,0,1,2.71,2.59v5.94A2.63,2.63,0,0,1,256.5,89.85Zm.87-8.3a1.29,1.29,0,0,0-1.28-1.29h-1.41a1.29,1.29,0,0,0-1.29,1.29V87a1.27,1.27,0,0,0,1.27,1.3h1.41a1.28,1.28,0,0,0,1.3-1.3ZM266.84,95H264a.65.65,0,0,1-.71-.66v-.26a.65.65,0,0,1,.71-.66h2.19A1.36,1.36,0,0,0,267.71,92V89.33c0-.21-.07-.45-.28-.45-.54,0-1.06,1-2.48,1h-.35A2.66,2.66,0,0,1,262,87.25v-6a2.61,2.61,0,0,1,2.61-2.69H265c1.32,0,1.89,1.11,2.48,1.11a.43.43,0,0,0,.35-.24l.31-.54a.59.59,0,0,1,.49-.26h.33a.54.54,0,0,1,.54.56V92.39A2.64,2.64,0,0,1,266.84,95Zm.87-13.29a1.48,1.48,0,0,0-1.48-1.48h-1a1.47,1.47,0,0,0-1.46,1.48v5.07a1.47,1.47,0,0,0,1.46,1.46h1a1.47,1.47,0,0,0,1.48-1.46ZM274,76.63h-.33a.7.7,0,0,1-.71-.71V74.63a.7.7,0,0,1,.71-.71H274a.7.7,0,0,1,.7.71v1.29A.7.7,0,0,1,274,76.63Zm0,13.22h-.33a.7.7,0,0,1-.71-.71V79.39a.7.7,0,0,1,.71-.71H274a.7.7,0,0,1,.7.71v9.75A.7.7,0,0,1,274,89.85ZM284.28,85h-4.36v1.86a1.34,1.34,0,0,0,1.53,1.44h2.42a.65.65,0,0,1,.71.66v.26a.65.65,0,0,1-.71.66h-3.13a2.68,2.68,0,0,1-2.56-2.69V81.27a2.66,2.66,0,0,1,2.7-2.59h2.05a2.68,2.68,0,0,1,2.71,2.59v2.29A1.27,1.27,0,0,1,284.28,85Zm-.38-3.44a1.27,1.27,0,0,0-1.27-1.27h-1.44a1.27,1.27,0,0,0-1.27,1.27v2h4Z"/><path class="cls-1" d="M47.83,66.27a2.33,2.33,0,0,1,2.68-2A1.76,1.76,0,0,1,52,66.56a2.52,2.52,0,0,1-2.36,1.91C47.55,68.62,47.58,67.35,47.83,66.27ZM34.67,57.71c1,.63,2.5,1,2.91-.06s.75-2.12-1.42-3.92c-.91-.75-2.33.15-2.74,1.25S33.09,56.71,34.67,57.71Zm68,15.29c-1.73-1.93-2.3-2.17-3-1.23s-.49,3.92.44,4.62a2.12,2.12,0,0,0,3-.42A2.3,2.3,0,0,0,102.62,73Zm0,9.88a33.86,33.86,0,0,1-14.79,17.44,35.34,35.34,0,0,1-5,2.36s-3,1-3.36,5.74c-.29,4.11,2.25,3.54,2.25,3.54a42.56,42.56,0,0,1-52-52.2s.78-2.48,4.19-.18c3.9,2.63,3.29,5.77,3.29,5.78a34.4,34.4,0,0,0-.45,5.5,33.87,33.87,0,0,0,7.71,21.53c1,1,2.29,1.42,5.62.18,4.17-1.55,1.44-5,1.44-5a25.44,25.44,0,0,1-5.47-10.41c-.61-2.27-.48-6.33,2.12-7,2.28-.59,5.24,1.6,6.16,5a17.12,17.12,0,0,0,1.77,4.25c1.19,1.92,3.3,2.59,6.24,1.51s2.31-3.78,1.12-5.78a4.28,4.28,0,0,1,1.53-5.93,4.24,4.24,0,0,1,5.78,1.59h0a4.24,4.24,0,0,0,1.51,5.8A4.29,4.29,0,0,0,78.29,75c1.13-2,3.26-3.84,5.56-1.93s2.88,4.17,1.81,6.17a17.56,17.56,0,0,1-2.79,3.66c-2.53,2.52-2.94,6.18-1.29,7.85,1.89,1.92,5.46,0,7.12-1.66a25.43,25.43,0,0,0,6.28-10s1.61-4.08,5-1.24C102.75,80.19,103,81.51,102.67,82.88Zm-47,12.42c-.46-1.08-3.15-2.38-4.23-1.93a2.13,2.13,0,0,0-1.13,2.79,2.31,2.31,0,0,0,2.79,1.13C55.67,96.75,56.17,96.38,55.71,95.3Zm21.87,13.48c0-1.17-.35-2.68-1.51-2.48s-2.21.4-2.68,3.19c-.2,1.16,1.29,1.94,2.45,1.74S77.5,110.65,77.58,108.78ZM79.4,90.41a2.52,2.52,0,0,0-2.83-1.09,1.77,1.77,0,0,0-1.24,2.48,2.33,2.33,0,0,0,3.08,1.31C79.47,92.78,80.58,92.17,79.4,90.41Zm2.86-10.33c.9-.82,1.91-2.14,1.66-3.25S82.34,74.31,81.26,75a4.09,4.09,0,0,0-1.65,3.55C79.87,79.69,81.21,81,82.26,80.08Zm-23.08-.9c1.09.34,3-.12,2.89-1.4a4.07,4.07,0,0,0-2.25-3.2c-1.1-.34-2.94.14-2.63,1.54C57.45,77.3,58.08,78.84,59.18,79.18Z"/><path class="cls-2" d="M101,40.87s1.76,1.91-1.93,3.71c-4.23,2.06-6.65,0-6.65,0a34.82,34.82,0,0,0-4.54-3.14,33.82,33.82,0,0,0-22.5-4.09c-1.37.37-2.38,1.27-3,4.78C61.67,46.47,66,45.83,66,45.83a25.48,25.48,0,0,1,11.76.46c2.26.61,5.72,2.75,5,5.34-.63,2.27-4,3.74-7.45,2.81a16.49,16.49,0,0,0-4.56-.58c-2.26.06-3.9,1.56-4.44,4.64s2.13,3.89,4.45,3.86a4.28,4.28,0,0,1,4.37,4.29,4.22,4.22,0,0,1-4.26,4.21h0a4.24,4.24,0,0,0,1.51,5.8A4.29,4.29,0,0,0,78.29,75c1.13-2,3.26-3.84,5.56-1.93s2.88,4.17,1.81,6.17a17.56,17.56,0,0,1-2.79,3.66c-2.53,2.52-2.94,6.18-1.29,7.85,1.89,1.92,5.46,0,7.12-1.66a25.43,25.43,0,0,0,6.28-10s1.61-4.08,5-1.24c2.74,2.27,3,3.59,2.66,5a33.86,33.86,0,0,1-14.79,17.44,35.34,35.34,0,0,1-5,2.36s-3,1-3.36,5.74c-.29,4.11,2.25,3.54,2.25,3.54A42.52,42.52,0,0,0,101,40.87ZM73.18,59.43a4.07,4.07,0,0,1-3.9.35c-1.16-.58-.61-2.43.23-3.2S72,56,73.16,56.39C74.52,56.81,74,58.65,73.18,59.43Zm13.6-2.9a1.77,1.77,0,0,1-2.77.16,2.51,2.51,0,0,1-.47-3c.93-1.9,2-1.24,2.83-.49A2.35,2.35,0,0,1,86.78,56.53Zm13.57-10.44c1.66-.87,2.25-.63,3,.28s.81,2.58-.29,3c-2.64,1-3.35.18-4.1-.73S99.31,46.63,100.35,46.09ZM103,76a2.12,2.12,0,0,1-3,.42c-.93-.7-1.15-3.68-.44-4.62s1.27-.7,3,1.23A2.3,2.3,0,0,1,103,76Zm-2-35.1ZM73.39,109.49c.47-2.79,1.52-3,2.68-3.19s1.56,1.31,1.51,2.48c-.08,1.87-.58,2.26-1.74,2.45S73.19,110.65,73.39,109.49Zm5-16.38c1.06-.33,2.17-.94,1-2.7a2.52,2.52,0,0,0-2.83-1.09,1.77,1.77,0,0,0-1.24,2.48A2.33,2.33,0,0,0,78.41,93.11Zm3.85-13c.89-.82,1.91-2.14,1.66-3.25S82.34,74.31,81.26,75a4.09,4.09,0,0,0-1.65,3.55C79.87,79.69,81.21,81,82.26,80.08ZM56.84,42.29c-.8,2.46-.72,3.08.44,3.22s3.64-1.54,3.79-2.7a2.13,2.13,0,0,0-1.86-2.37A2.32,2.32,0,0,0,56.84,42.29Z"/><path class="cls-3" d="M86.37,53.2a2.35,2.35,0,0,1,.41,3.33,1.77,1.77,0,0,1-2.77.16,2.51,2.51,0,0,1-.47-3C84.47,51.79,85.55,52.45,86.37,53.2ZM51.48,93.37a2.13,2.13,0,0,0-1.13,2.79,2.31,2.31,0,0,0,2.79,1.13c2.53-.54,3-.91,2.57-2S52.56,92.92,51.48,93.37Zm51.87-47c-.75-.91-1.34-1.15-3-.28-1,.54-2.14,1.64-1.39,2.54s1.46,1.72,4.1.73C104.16,49,104.1,47.27,103.35,46.37Zm-4.28-1.79c-4.23,2.06-6.65,0-6.65,0a34.82,34.82,0,0,0-4.54-3.14,33.82,33.82,0,0,0-22.5-4.09c-1.37.37-2.38,1.27-3,4.78C61.67,46.47,66,45.83,66,45.83a25.48,25.48,0,0,1,11.76.46c2.26.61,5.72,2.75,5,5.34-.63,2.27-4,3.74-7.45,2.81a16.49,16.49,0,0,0-4.56-.58c-2.26.06-3.9,1.56-4.44,4.64s2.13,3.89,4.45,3.86a4.28,4.28,0,0,1,4.37,4.29,4.22,4.22,0,0,1-4.26,4.21h0a4.24,4.24,0,0,0-5.78-1.59,4.28,4.28,0,0,0-1.53,5.93c1.19,2,1.69,4.75-1.12,5.78s-5,.41-6.24-1.51a17.12,17.12,0,0,1-1.77-4.25c-.92-3.44-3.88-5.63-6.16-5-2.6.67-2.73,4.73-2.12,7a25.44,25.44,0,0,0,5.47,10.41s2.73,3.43-1.44,5c-3.33,1.24-4.62.82-5.62-.18a33.87,33.87,0,0,1-7.71-21.53,34.4,34.4,0,0,1,.45-5.5s.61-3.15-3.29-5.78c-3.41-2.3-4.19.18-4.19.18A42.52,42.52,0,0,1,101,40.87h0S102.77,42.77,99.07,44.58ZM36.16,53.73c-.91-.75-2.33.15-2.74,1.25s-.33,1.73,1.25,2.73c1,.63,2.5,1,2.91-.06S38.33,55.53,36.16,53.73ZM50.51,64.25a2.33,2.33,0,0,0-2.68,2c-.25,1.08-.28,2.35,1.84,2.2A2.52,2.52,0,0,0,52,66.56,1.76,1.76,0,0,0,50.51,64.25Zm6.77-18.74c1.17.14,3.64-1.54,3.79-2.7a2.13,2.13,0,0,0-1.86-2.37,2.32,2.32,0,0,0-2.37,1.85C56,44.75,56.12,45.37,57.28,45.51Zm4.79,32.27a4.07,4.07,0,0,0-2.25-3.2c-1.1-.34-2.94.14-2.63,1.54.26,1.18.89,2.72,2,3.06S62.15,79.06,62.07,77.78Zm7.44-21.2c-.84.77-1.39,2.62-.23,3.2a4.07,4.07,0,0,0,3.9-.35c.84-.78,1.34-2.62,0-3C72,56,70.35,55.8,69.51,56.58Z"/></svg>