<svg xmlns="http://www.w3.org/2000/svg" viewBox="0 0 328.16 141.73"><defs><style>.cls-1{fill:#006c66;}.cls-2{fill:#00b1ea;}.cls-3{fill:#c6d325;}</style></defs><g id="MP-Logo-en-farbig"><path class="cls-1" d="M141.25,65.68h-3.86a2.64,2.64,0,0,1-2.66-2.62V52.36a2.65,2.65,0,0,1,2.66-2.62h3.09a.67.67,0,0,1,.7.66v.26a.67.67,0,0,1-.7.66h-2.71a1.31,1.31,0,0,0-1.3,1.3v10a1.36,1.36,0,0,0,1.32,1.51h3.46a.67.67,0,0,1,.71.66V65A.67.67,0,0,1,141.25,65.68Zm7.59,0H146.6A2.64,2.64,0,0,1,144,63V57.1a2.67,2.67,0,0,1,2.71-2.59h2.05a2.66,2.66,0,0,1,2.71,2.59V63A2.63,2.63,0,0,1,148.84,65.68Zm.87-8.3a1.29,1.29,0,0,0-1.27-1.3H147a1.29,1.29,0,0,0-1.29,1.3V62.8A1.27,1.27,0,0,0,147,64.1h1.41a1.28,1.28,0,0,0,1.3-1.3Zm15.69,8.3h-.33a.69.69,0,0,1-.7-.71V57.31a1.28,1.28,0,0,0-1.23-1.23h-.8a1.24,1.24,0,0,0-1.25,1.23V65a.71.71,0,0,1-.71.71h-.33a.69.69,0,0,1-.7-.71V57.33a1.26,1.26,0,0,0-1.23-1.25h-.8a1.23,1.23,0,0,0-1.25,1.23V65a.71.71,0,0,1-.71.71H155a.69.69,0,0,1-.7-.71V55.09a.56.56,0,0,1,.63-.58h.31a.59.59,0,0,1,.45.32l.21.43a.43.43,0,0,0,.35.28c.45,0,.92-1.11,2.17-1.11h.33a2.31,2.31,0,0,1,1.46.57c.33.26.54.54.87.54.76,0,1.13-1.11,2.36-1.11h.38a2.33,2.33,0,0,1,2.26,2.6V65A.71.71,0,0,1,165.4,65.68Zm8.43.07h-.35c-1.41,0-1.93-1-2.47-1-.22,0-.29.23-.29.45v5a.71.71,0,0,1-.7.71h-.33a.7.7,0,0,1-.71-.71V55.07a.54.54,0,0,1,.54-.56h.33a.62.62,0,0,1,.5.25l.3.55a.44.44,0,0,0,.36.23c.59,0,1.15-1.11,2.47-1.11h.35a2.62,2.62,0,0,1,2.62,2.69v6A2.67,2.67,0,0,1,173.83,65.75Zm.88-8.18a1.48,1.48,0,0,0-1.47-1.49h-1a1.48,1.48,0,0,0-1.49,1.49v5.07a1.47,1.47,0,0,0,1.49,1.46h1a1.47,1.47,0,0,0,1.47-1.46Zm11,8.11h-.35a.64.64,0,0,1-.52-.34l-.21-.4a.4.4,0,0,0-.38-.23c-.59,0-1.08,1-2.49,1h-.36a2.66,2.66,0,0,1-2.61-2.67V61.27a2.61,2.61,0,0,1,2.61-2.69h.36c1.32,0,1.88,1.11,2.47,1.11.21,0,.28-.17.28-.4v-1.7A1.39,1.39,0,0,0,183,56.08h-2.69a.66.66,0,0,1-.71-.66v-.25a.65.65,0,0,1,.71-.66h3.32a2.67,2.67,0,0,1,2.67,2.56v8A.58.58,0,0,1,185.75,65.68Zm-1.2-4a1.48,1.48,0,0,0-1.48-1.49h-1a1.48,1.48,0,0,0-1.48,1.49v.89a1.48,1.48,0,0,0,1.48,1.49h1a1.48,1.48,0,0,0,1.48-1.49Zm10.35-5.64h-2.57a1.42,1.42,0,0,0-1.42,1.51V65a.71.71,0,0,1-.7.71h-.33a.7.7,0,0,1-.71-.71V55.09a.57.57,0,0,1,.64-.58h.3a.57.57,0,0,1,.45.32l.21.43a.45.45,0,0,0,.43.28c.59,0,1.13-1,2.45-1h1.25a.65.65,0,0,1,.7.66v.25A.65.65,0,0,1,194.9,56.08Zm8.55,9.6h-.36a.61.61,0,0,1-.51-.34l-.22-.4a.37.37,0,0,0-.37-.23c-.59,0-1.09,1-2.5,1h-.36a2.67,2.67,0,0,1-2.61-2.67V61.27a2.61,2.61,0,0,1,2.61-2.69h.36c1.32,0,1.88,1.11,2.47,1.11.21,0,.29-.17.29-.4v-1.7a1.39,1.39,0,0,0-1.56-1.51H198a.65.65,0,0,1-.7-.66v-.25a.65.65,0,0,1,.7-.66h3.33A2.67,2.67,0,0,1,204,57.07v8A.57.57,0,0,1,203.45,65.68Zm-1.2-4a1.48,1.48,0,0,0-1.49-1.49h-1a1.48,1.48,0,0,0-1.49,1.49v.89a1.48,1.48,0,0,0,1.49,1.49h1a1.48,1.48,0,0,0,1.49-1.49Zm10-5.64h-2.45V65a.71.71,0,0,1-.71.71h-.33a.7.7,0,0,1-.71-.71V56.08h-1.34a.66.66,0,0,1-.71-.66v-.25a.65.65,0,0,1,.71-.66h1.34V50.45a.7.7,0,0,1,.71-.71h.33a.71.71,0,0,1,.71.71v4.06h2.45a.65.65,0,0,1,.71.66v.25A.66.66,0,0,1,212.26,56.08Zm3.79-3.62h-.33a.7.7,0,0,1-.71-.71v-1.3a.7.7,0,0,1,.71-.71h.33a.71.71,0,0,1,.71.71v1.3A.71.71,0,0,1,216.05,52.46Zm0,13.22h-.33A.7.7,0,0,1,215,65V55.21a.69.69,0,0,1,.71-.7h.33a.7.7,0,0,1,.71.7V65A.71.71,0,0,1,216.05,65.68ZM228,55.52l-3.07,9.42a1.08,1.08,0,0,1-1,.74h-.5a1.09,1.09,0,0,1-1-.74l-3.06-9.42a1.32,1.32,0,0,1-.05-.26.67.67,0,0,1,.52-.64l.33-.11a.71.71,0,0,1,1,.37l1.93,6.67a19.77,19.77,0,0,1,.57,2.59h0a19.77,19.77,0,0,1,.57-2.59l1.93-6.67a.7.7,0,0,1,1-.37l.33.11a.66.66,0,0,1,.52.64A1.27,1.27,0,0,1,228,55.52Zm8.17,5.28h-4.36v1.86a1.35,1.35,0,0,0,1.53,1.44h2.43a.66.66,0,0,1,.71.66V65a.66.66,0,0,1-.71.66h-3.13A2.68,2.68,0,0,1,230.07,63V57.1a2.67,2.67,0,0,1,2.71-2.59h2.05a2.69,2.69,0,0,1,2.71,2.59v2.28A1.28,1.28,0,0,1,236.17,60.8Zm-.38-3.44a1.27,1.27,0,0,0-1.27-1.28h-1.44a1.27,1.27,0,0,0-1.27,1.28v2h4ZM141.24,89.84h-3.86a2.62,2.62,0,0,1-2.65-2.61V76.57A2.63,2.63,0,0,1,137.38,74h3.08a.67.67,0,0,1,.71.65v.26a.67.67,0,0,1-.71.66h-2.7a1.31,1.31,0,0,0-1.3,1.29v10a1.35,1.35,0,0,0,1.32,1.5h3.46a.67.67,0,0,1,.7.66v.26A.66.66,0,0,1,141.24,89.84Zm9.63,0h-.35a.61.61,0,0,1-.52-.33l-.21-.39a.39.39,0,0,0-.38-.24c-.59,0-1.08,1-2.49,1h-.35A2.65,2.65,0,0,1,144,87.26V79.41a.69.69,0,0,1,.7-.71H145a.71.71,0,0,1,.71.71v7.38a1.48,1.48,0,0,0,1.48,1.48h1a1.48,1.48,0,0,0,1.48-1.48V79.41a.7.7,0,0,1,.71-.71h.32a.71.71,0,0,1,.71.71v9.85A.57.57,0,0,1,150.87,89.84Zm5,0h-.33a.69.69,0,0,1-.71-.7V74.66a.69.69,0,0,1,.71-.7h.33a.7.7,0,0,1,.7.7V89.14A.7.7,0,0,1,155.92,89.84Zm9.56-9.56H163v8.86a.7.7,0,0,1-.71.7H162a.68.68,0,0,1-.7-.7V80.28H160a.66.66,0,0,1-.71-.66v-.26a.66.66,0,0,1,.71-.66h1.34v-4a.68.68,0,0,1,.7-.7h.33a.7.7,0,0,1,.71.7v4h2.44a.66.66,0,0,1,.71.66v.26A.66.66,0,0,1,165.48,80.28Zm9.05,9.56h-.36a.6.6,0,0,1-.51-.33l-.21-.39a.39.39,0,0,0-.38-.24c-.59,0-1.08,1-2.49,1h-.35a2.65,2.65,0,0,1-2.61-2.65V79.41a.69.69,0,0,1,.7-.71h.33a.71.71,0,0,1,.71.71v7.38a1.47,1.47,0,0,0,1.48,1.48h1a1.48,1.48,0,0,0,1.48-1.48V79.41a.69.69,0,0,1,.7-.71h.33a.71.71,0,0,1,.71.71v9.85A.57.57,0,0,1,174.53,89.84Zm9.11-9.56h-2.56a1.41,1.41,0,0,0-1.41,1.5v7.36a.7.7,0,0,1-.7.7h-.33a.69.69,0,0,1-.71-.7V79.29a.58.58,0,0,1,.64-.59h.3c.24,0,.38.22.45.33l.21.43a.44.44,0,0,0,.42.28c.59,0,1.13-1,2.45-1h1.24a.66.66,0,0,1,.71.66v.26A.66.66,0,0,1,183.64,80.28Zm8.53,9.56h-.35a.62.62,0,0,1-.52-.33l-.21-.39a.39.39,0,0,0-.38-.24c-.58,0-1.08,1-2.49,1h-.35a2.66,2.66,0,0,1-2.61-2.65V85.45a2.61,2.61,0,0,1,2.61-2.68h.35c1.32,0,1.88,1.1,2.47,1.1.21,0,.28-.16.28-.4V81.78a1.39,1.39,0,0,0-1.55-1.5h-2.68a.65.65,0,0,1-.7-.66v-.26a.65.65,0,0,1,.7-.66h3.31a2.67,2.67,0,0,1,2.66,2.57v8A.57.57,0,0,1,192.17,89.84ZM191,85.9a1.47,1.47,0,0,0-1.48-1.48h-1A1.47,1.47,0,0,0,187,85.9v.89a1.48,1.48,0,0,0,1.48,1.48h1A1.48,1.48,0,0,0,191,86.79Zm6.25,3.94h-.33a.68.68,0,0,1-.7-.7V74.66a.68.68,0,0,1,.7-.7h.33a.7.7,0,0,1,.71.7V89.14A.7.7,0,0,1,197.22,89.84Zm14.07-7.14h-3v6.44a.7.7,0,0,1-.71.7h-.32a.69.69,0,0,1-.71-.7V74.52a.54.54,0,0,1,.54-.56h.33a.59.59,0,0,1,.49.26l.31.54a.4.4,0,0,0,.35.23c.56,0,1.13-1.1,2.47-1.1h.35A2.6,2.6,0,0,1,214,76.54V80A2.81,2.81,0,0,1,211.29,82.7Zm1-5.88A1.27,1.27,0,0,0,211,75.53H209.6a1.32,1.32,0,0,0-1.29,1.29v4.31h2.56a1.42,1.42,0,0,0,1.41-1.32Zm8.36,13h-4a.64.64,0,0,1-.7-.65v-.26a.65.65,0,0,1,.7-.66h3.62c.8,0,1-.82,1-1.34V86a1,1,0,0,0-1-1h-2a2.29,2.29,0,0,1-2.3-2.3V81.15a2.67,2.67,0,0,1,2.68-2.45h3a.66.66,0,0,1,.71.66v.26a.66.66,0,0,1-.71.66h-2.58a1.18,1.18,0,0,0-1.34,1.2v.87A1.22,1.22,0,0,0,219,83.52H221a2,2,0,0,1,2.11,2.12v1.57A2.36,2.36,0,0,1,220.64,89.84Zm13.42-10.15-5.43,14.85a.61.61,0,0,1-1,.36l-.26-.14a.61.61,0,0,1-.31-.47.74.74,0,0,1,.05-.33l1.5-4.12c-.14,0-.25-.25-.3-.42l-3.55-9.73a1,1,0,0,1-.05-.23.64.64,0,0,1,.45-.61l.38-.15a.65.65,0,0,1,.87.4l3,8.46,3-8.46a.66.66,0,0,1,.85-.42l.35.17a.67.67,0,0,1,.45.61A1,1,0,0,1,234.06,79.69ZM242,89.84h-3.22a2.64,2.64,0,0,1-2.58-2.67V81.31a2.67,2.67,0,0,1,2.68-2.61h2.87a.66.66,0,0,1,.7.66v.26a.66.66,0,0,1-.7.66h-2.26a1.38,1.38,0,0,0-1.55,1.53v5c0,1.11.7,1.46,1.57,1.46H242a.66.66,0,0,1,.71.66v.26A.65.65,0,0,1,242,89.84Zm9.35,0H251a.69.69,0,0,1-.71-.7V81.76a1.48,1.48,0,0,0-1.48-1.48h-1a1.48,1.48,0,0,0-1.48,1.48v7.38a.7.7,0,0,1-.71.7h-.33a.69.69,0,0,1-.7-.7V74.66a.69.69,0,0,1,.7-.7h.33a.7.7,0,0,1,.71.7v4.68c0,.23.07.4.28.4.59,0,1.15-1.11,2.47-1.11h.35A2.61,2.61,0,0,1,252,81.31v7.83A.7.7,0,0,1,251.3,89.84Zm8.41,0h-2.23a2.62,2.62,0,0,1-2.61-2.63V81.29a2.68,2.68,0,0,1,2.71-2.59h2a2.67,2.67,0,0,1,2.7,2.59v5.92A2.62,2.62,0,0,1,259.71,89.84Zm.87-8.27a1.28,1.28,0,0,0-1.27-1.29H257.9a1.29,1.29,0,0,0-1.29,1.29V87a1.27,1.27,0,0,0,1.27,1.29h1.41A1.27,1.27,0,0,0,260.58,87Zm6.25,8.27h-.33a.68.68,0,0,1-.7-.7V74.66a.68.68,0,0,1,.7-.7h.33a.7.7,0,0,1,.71.7V89.14A.7.7,0,0,1,266.83,89.84Zm9,0h-2.23A2.62,2.62,0,0,1,271,87.21V81.29a2.68,2.68,0,0,1,2.71-2.59h2a2.67,2.67,0,0,1,2.7,2.59v5.92A2.62,2.62,0,0,1,275.85,89.84Zm.87-8.27a1.28,1.28,0,0,0-1.27-1.29H274a1.29,1.29,0,0,0-1.29,1.29V87A1.27,1.27,0,0,0,274,88.27h1.41A1.27,1.27,0,0,0,276.72,87ZM286.17,95H283.3a.64.64,0,0,1-.7-.65V94.1a.65.65,0,0,1,.7-.66h2.19A1.36,1.36,0,0,0,287,92V89.33c0-.21-.07-.45-.28-.45-.54,0-1.06,1-2.47,1h-.35a2.65,2.65,0,0,1-2.61-2.65v-6a2.6,2.6,0,0,1,2.61-2.68h.35c1.31,0,1.88,1.11,2.47,1.11a.43.43,0,0,0,.35-.24l.3-.54a.62.62,0,0,1,.5-.26h.33a.55.55,0,0,1,.54.57V92.38A2.64,2.64,0,0,1,286.17,95ZM287,81.76a1.48,1.48,0,0,0-1.48-1.48h-1a1.46,1.46,0,0,0-1.45,1.48v5a1.46,1.46,0,0,0,1.45,1.46h1A1.47,1.47,0,0,0,287,86.81Zm13-2.07-5.43,14.85a.62.62,0,0,1-1,.36l-.25-.14a.61.61,0,0,1-.31-.47.74.74,0,0,1,.05-.33l1.5-4.12c-.14,0-.26-.25-.3-.42l-3.55-9.73a.62.62,0,0,1,.4-.84l.37-.15a.65.65,0,0,1,.87.4l3,8.46,3-8.46a.66.66,0,0,1,.85-.42l.35.17a.66.66,0,0,1,.44.61A.93.93,0,0,1,300.08,79.69Z"/><path class="cls-1" d="M47.83,66.27a2.33,2.33,0,0,1,2.68-2A1.76,1.76,0,0,1,52,66.56a2.52,2.52,0,0,1-2.36,1.91C47.55,68.62,47.58,67.35,47.83,66.27ZM34.67,57.71c1,.63,2.5,1,2.91-.06s.75-2.12-1.42-3.92c-.91-.75-2.33.15-2.74,1.25S33.09,56.71,34.67,57.71Zm68,15.29c-1.73-1.93-2.3-2.17-3-1.23s-.49,3.92.44,4.62a2.12,2.12,0,0,0,3-.42A2.3,2.3,0,0,0,102.62,73Zm0,9.88a33.86,33.86,0,0,1-14.79,17.44,35.34,35.34,0,0,1-5,2.36s-3,1-3.36,5.74c-.29,4.11,2.25,3.54,2.25,3.54a42.56,42.56,0,0,1-52-52.2s.78-2.48,4.19-.18c3.9,2.63,3.29,5.77,3.29,5.78a34.4,34.4,0,0,0-.45,5.5,33.87,33.87,0,0,0,7.71,21.53c1,1,2.29,1.42,5.62.18,4.17-1.55,1.44-5,1.44-5a25.44,25.44,0,0,1-5.47-10.41c-.61-2.27-.48-6.33,2.12-7,2.28-.59,5.24,1.6,6.16,5a17.12,17.12,0,0,0,1.77,4.25c1.19,1.92,3.3,2.59,6.24,1.51s2.31-3.78,1.12-5.78a4.28,4.28,0,0,1,1.53-5.93,4.24,4.24,0,0,1,5.78,1.59h0a4.24,4.24,0,0,0,1.51,5.8A4.29,4.29,0,0,0,78.29,75c1.13-2,3.26-3.84,5.56-1.93s2.88,4.17,1.81,6.17a17.56,17.56,0,0,1-2.79,3.66c-2.53,2.52-2.94,6.18-1.29,7.85,1.89,1.92,5.46,0,7.12-1.66a25.43,25.43,0,0,0,6.28-10s1.61-4.08,5-1.24C102.75,80.19,103,81.51,102.67,82.88Zm-47,12.42c-.46-1.08-3.15-2.38-4.23-1.93a2.13,2.13,0,0,0-1.13,2.79,2.31,2.31,0,0,0,2.79,1.13C55.67,96.75,56.17,96.38,55.71,95.3Zm21.87,13.48c0-1.17-.35-2.68-1.51-2.48s-2.21.4-2.68,3.19c-.2,1.16,1.29,1.94,2.45,1.74S77.5,110.65,77.58,108.78ZM79.4,90.41a2.52,2.52,0,0,0-2.83-1.09,1.77,1.77,0,0,0-1.24,2.48,2.33,2.33,0,0,0,3.08,1.31C79.47,92.78,80.58,92.17,79.4,90.41Zm2.86-10.33c.9-.82,1.91-2.14,1.66-3.25S82.34,74.31,81.26,75a4.09,4.09,0,0,0-1.65,3.55C79.87,79.69,81.21,81,82.26,80.08Zm-23.08-.9c1.09.34,3-.12,2.89-1.4a4.07,4.07,0,0,0-2.25-3.2c-1.1-.34-2.94.14-2.63,1.54C57.45,77.3,58.08,78.84,59.18,79.18Z"/><path class="cls-2" d="M101,40.87s1.76,1.91-1.93,3.71c-4.23,2.06-6.65,0-6.65,0a34.82,34.82,0,0,0-4.54-3.14,33.82,33.82,0,0,0-22.5-4.09c-1.37.37-2.38,1.27-3,4.78C61.67,46.47,66,45.83,66,45.83a25.48,25.48,0,0,1,11.76.46c2.26.61,5.72,2.75,5,5.34-.63,2.27-4,3.74-7.45,2.81a16.49,16.49,0,0,0-4.56-.58c-2.26.06-3.9,1.56-4.44,4.64s2.13,3.89,4.45,3.86a4.28,4.28,0,0,1,4.37,4.29,4.22,4.22,0,0,1-4.26,4.21h0a4.24,4.24,0,0,0,1.51,5.8A4.29,4.29,0,0,0,78.29,75c1.13-2,3.26-3.84,5.56-1.93s2.88,4.17,1.81,6.17a17.56,17.56,0,0,1-2.79,3.66c-2.53,2.52-2.94,6.18-1.29,7.85,1.89,1.92,5.46,0,7.12-1.66a25.43,25.43,0,0,0,6.28-10s1.61-4.08,5-1.24c2.74,2.27,3,3.59,2.66,5a33.86,33.86,0,0,1-14.79,17.44,35.34,35.34,0,0,1-5,2.36s-3,1-3.36,5.74c-.29,4.11,2.25,3.54,2.25,3.54A42.52,42.52,0,0,0,101,40.87ZM73.18,59.43a4.07,4.07,0,0,1-3.9.35c-1.16-.58-.61-2.43.23-3.2S72,56,73.16,56.39C74.52,56.81,74,58.65,73.18,59.43Zm13.6-2.9a1.77,1.77,0,0,1-2.77.16,2.51,2.51,0,0,1-.47-3c.93-1.9,2-1.24,2.83-.49A2.35,2.35,0,0,1,86.78,56.53Zm13.57-10.44c1.66-.87,2.25-.63,3,.28s.81,2.58-.29,3c-2.64,1-3.35.18-4.1-.73S99.31,46.63,100.35,46.09ZM103,76a2.12,2.12,0,0,1-3,.42c-.93-.7-1.15-3.68-.44-4.62s1.27-.7,3,1.23A2.3,2.3,0,0,1,103,76Zm-2-35.1ZM73.39,109.49c.47-2.79,1.52-3,2.68-3.19s1.56,1.31,1.51,2.48c-.08,1.87-.58,2.26-1.74,2.45S73.19,110.65,73.39,109.49Zm5-16.38c1.06-.33,2.17-.94,1-2.7a2.52,2.52,0,0,0-2.83-1.09,1.77,1.77,0,0,0-1.24,2.48A2.33,2.33,0,0,0,78.41,93.11Zm3.85-13c.89-.82,1.91-2.14,1.66-3.25S82.34,74.31,81.26,75a4.09,4.09,0,0,0-1.65,3.55C79.87,79.69,81.21,81,82.26,80.08ZM56.84,42.29c-.8,2.46-.72,3.08.44,3.22s3.64-1.54,3.79-2.7a2.13,2.13,0,0,0-1.86-2.37A2.32,2.32,0,0,0,56.84,42.29Z"/><path class="cls-3" d="M86.37,53.2a2.35,2.35,0,0,1,.41,3.33,1.77,1.77,0,0,1-2.77.16,2.51,2.51,0,0,1-.47-3C84.47,51.79,85.55,52.45,86.37,53.2ZM51.48,93.37a2.13,2.13,0,0,0-1.13,2.79,2.31,2.31,0,0,0,2.79,1.13c2.53-.54,3-.91,2.57-2S52.56,92.92,51.48,93.37Zm51.87-47c-.75-.91-1.34-1.15-3-.28-1,.54-2.14,1.64-1.39,2.54s1.46,1.72,4.1.73C104.16,49,104.1,47.27,103.35,46.37Zm-4.28-1.79c-4.23,2.06-6.65,0-6.65,0a34.82,34.82,0,0,0-4.54-3.14,33.82,33.82,0,0,0-22.5-4.09c-1.37.37-2.38,1.27-3,4.78C61.67,46.47,66,45.83,66,45.83a25.48,25.48,0,0,1,11.76.46c2.26.61,5.72,2.75,5,5.34-.63,2.27-4,3.74-7.45,2.81a16.49,16.49,0,0,0-4.56-.58c-2.26.06-3.9,1.56-4.44,4.64s2.13,3.89,4.45,3.86a4.28,4.28,0,0,1,4.37,4.29,4.22,4.22,0,0,1-4.26,4.21h0a4.24,4.24,0,0,0-5.78-1.59,4.28,4.28,0,0,0-1.53,5.93c1.19,2,1.69,4.75-1.12,5.78s-5,.41-6.24-1.51a17.12,17.12,0,0,1-1.77-4.25c-.92-3.44-3.88-5.63-6.16-5-2.6.67-2.73,4.73-2.12,7a25.44,25.44,0,0,0,5.47,10.41s2.73,3.43-1.44,5c-3.33,1.24-4.62.82-5.62-.18a33.87,33.87,0,0,1-7.71-21.53,34.4,34.4,0,0,1,.45-5.5s.61-3.15-3.29-5.78c-3.41-2.3-4.19.18-4.19.18A42.52,42.52,0,0,1,101,40.87h0S102.77,42.77,99.07,44.58ZM36.16,53.73c-.91-.75-2.33.15-2.74,1.25s-.33,1.73,1.25,2.73c1,.63,2.5,1,2.91-.06S38.33,55.53,36.16,53.73ZM50.51,64.25a2.33,2.33,0,0,0-2.68,2c-.25,1.08-.28,2.35,1.84,2.2A2.52,2.52,0,0,0,52,66.56,1.76,1.76,0,0,0,50.51,64.25Zm6.77-18.74c1.17.14,3.64-1.54,3.79-2.7a2.13,2.13,0,0,0-1.86-2.37,2.32,2.32,0,0,0-2.37,1.85C56,44.75,56.12,45.37,57.28,45.51Zm4.79,32.27a4.07,4.07,0,0,0-2.25-3.2c-1.1-.34-2.94.14-2.63,1.54.26,1.18.89,2.72,2,3.06S62.15,79.06,62.07,77.78Zm7.44-21.2c-.84.77-1.39,2.62-.23,3.2a4.07,4.07,0,0,0,3.9-.35c.84-.78,1.34-2.62,0-3C72,56,70.35,55.8,69.51,56.58Z"/></g></svg>